<svg t="1718864479915" class="icon" viewBox="0 0 1185 1024" version="1.1" xmlns="http://www.w3.org/2000/svg" p-id="1732" width="200" height="200"><path d="M691.741103 751.831579a297.714526 297.714526 0 0 1 236.705684-291.301053L661.775629 34.977684a74.213053 74.213053 0 0 0-62.733473-33.845895c-25.707789 0-49.744842 12.934737-62.841263 33.845895L10.296051 874.226526c-13.904842 22.204632-13.689263 49.690947 0.538947 71.68 13.365895 20.749474 36.648421 33.091368 62.248421 33.091369H797.105314a296.96 296.96 0 0 1-105.310316-227.112421zM534.098998 303.427368c0-5.066105 2.317474-10.24 7.006316-14.120421a26.947368 26.947368 0 0 1 17.084631-5.928421h83.644632c6.197895 0 12.395789 1.994105 17.084631 5.928421a18.378105 18.378105 0 0 1 7.060211 14.174316v220.16l0.161684 143.144421a18.216421 18.216421 0 0 1-7.114105 14.282105 26.624 26.624 0 0 1-17.138526 5.874527l-83.213474-0.377263a26.785684 26.785684 0 0 1-16.976842-5.874527 18.647579 18.647579 0 0 1-7.060211-14.120421l-0.538947-141.258105V303.481263z m132.042105 541.696a34.115368 34.115368 0 0 1-7.006316 21.234527 22.096842 22.096842 0 0 1-17.138526 8.784842h-83.752421a21.881263 21.881263 0 0 1-17.084632-8.784842 33.792 33.792 0 0 1-7.06021-21.234527v-49.960421c0-7.706947 2.317474-15.413895 7.06021-21.234526a21.881263 21.881263 0 0 1 17.084632-8.784842h83.752421a22.096842 22.096842 0 0 1 17.084632 8.784842 34.223158 34.223158 0 0 1 7.114105 21.234526v49.960421z m513.670737-138.13221a14.443789 14.443789 0 0 0-10.24-4.257684h-22.096842a24.144842 24.144842 0 0 1-21.665684-15.898948l-11.479579-27.917473a23.929263 23.929263 0 0 1 3.934316-26.462316l15.683368-15.683369a14.497684 14.497684 0 0 0 0-20.533894l-26.677895-26.677895a14.389895 14.389895 0 0 0-20.48 0l-15.737263 15.737263a23.875368 23.875368 0 0 1-26.51621 3.934316l-27.863579-11.479579a24.144842 24.144842 0 0 1-15.898948-21.61179v-22.204631a14.443789 14.443789 0 0 0-14.551579-14.497684h-37.618526a14.443789 14.443789 0 0 0-14.551579 14.551579v22.096842c0 9.216-7.114105 18.917053-15.845053 21.665684l-27.917473 11.479579a23.767579 23.767579 0 0 1-26.462316-3.934316l-15.791158-15.683368a14.443789 14.443789 0 0 0-20.48 0l-26.624 26.624a14.551579 14.551579 0 0 0 0 20.48l15.683368 15.737263c6.467368 6.467368 8.299789 18.378105 3.934316 26.462316l-11.479579 27.917473a24.090947 24.090947 0 0 1-21.611789 15.952842h-22.204632a14.443789 14.443789 0 0 0-14.497684 14.497685v37.672421a14.497684 14.497684 0 0 0 14.551579 14.497684h22.096842c9.216 0 18.863158 7.168 21.61179 15.898947l11.533473 27.917474c4.311579 8.084211 2.533053 20.048842-3.934316 26.462316l-15.737263 15.737263a14.443789 14.443789 0 0 0 0 20.48l26.677895 26.677895a14.389895 14.389895 0 0 0 20.48 0l15.791158-15.683369a23.713684 23.713684 0 0 1 26.408421-3.880421l27.971368 11.479579c8.730947 2.694737 15.845053 12.395789 15.845053 21.61179v22.096842a14.497684 14.497684 0 0 0 14.551579 14.551579h37.672421a14.497684 14.497684 0 0 0 14.497684-14.551579v-22.096842c0-9.162105 7.168-18.863158 15.898948-21.61179l27.917473-11.479579a23.875368 23.875368 0 0 1 26.516211 3.880421l15.629473 15.629474a14.443789 14.443789 0 0 0 20.533895 0.107789l26.677895-26.677894a14.443789 14.443789 0 0 0 0-20.533895l-15.683368-15.683369a23.983158 23.983158 0 0 1-3.934316-26.51621l11.479579-27.917474a24.198737 24.198737 0 0 1 21.611789-15.898947h22.150737a14.443789 14.443789 0 0 0 14.497684-14.551579v-37.618526a14.497684 14.497684 0 0 0-4.257684-10.24z m-212.345263 112.424421a83.321263 83.321263 0 1 1-0.053895-166.642526 83.321263 83.321263 0 0 1 0.053895 166.642526z" fill="currentColor" p-id="1733"></path></svg>