<?xml version="1.0" standalone="no"?><!DOCTYPE svg PUBLIC "-//W3C//DTD SVG 1.1//EN" "http://www.w3.org/Graphics/SVG/1.1/DTD/svg11.dtd"><svg t="1614064794161" class="icon" viewBox="0 0 1024 1024" version="1.1" xmlns="http://www.w3.org/2000/svg" p-id="1956" xmlns:xlink="http://www.w3.org/1999/xlink" width="200" height="200"><defs><style type="text/css"></style></defs><path d="M706.346667 725.333333a12.8 12.8 0 0 1-7.509334-2.389333 11.434667 11.434667 0 0 1-4.053333-13.781333l61.354667-147.541334h-359.68A12.16 12.16 0 0 1 384 549.802667v-118.272c0-6.485333 5.546667-11.818667 12.458667-11.818667h359.68L694.784 272.213333a11.477333 11.477333 0 0 1 4.053333-13.781333 12.928 12.928 0 0 1 15.104 0.085333l305.194667 222.805334a11.605333 11.605333 0 0 1 4.864 9.386666 11.648 11.648 0 0 1-4.864 9.386667l-305.194667 222.805333a12.885333 12.885333 0 0 1-7.594666 2.474667zM341.333333 490.666667a106.666667 106.666667 0 1 0-213.333333 0 106.666667 106.666667 0 0 0 213.333333 0z" fill="#D8D8D8" p-id="1957"></path></svg>