<?xml version="1.0" standalone="no"?><!DOCTYPE svg PUBLIC "-//W3C//DTD SVG 1.1//EN" "http://www.w3.org/Graphics/SVG/1.1/DTD/svg11.dtd"><svg t="1615361010722" class="icon" viewBox="0 0 1024 1024" version="1.1" xmlns="http://www.w3.org/2000/svg" p-id="7312" xmlns:xlink="http://www.w3.org/1999/xlink" width="200" height="200"><defs><style type="text/css"></style></defs><path d="M371.456 933.12H241.152a77.44 77.44 0 0 1-77.44-77.44V168.96c0-42.688 34.752-77.44 77.44-77.44h543.36c42.752 0 77.44 34.752 77.44 77.44v203.712a29.12 29.12 0 0 1-28.992 28.992 29.12 29.12 0 0 1-29.056-28.992V168.896a19.968 19.968 0 0 0-19.328-19.392H241.152a19.968 19.968 0 0 0-19.328 19.392V855.68c0 10.24 9.088 19.328 19.328 19.328h130.304c15.936 0 28.992 13.12 28.992 29.056a29.12 29.12 0 0 1-28.992 28.992z" fill="#666A7A" p-id="7313"></path><path d="M691.2 328.192H336.832a29.12 29.12 0 0 1-29.056-28.992c0-16 13.12-29.056 29.056-29.056H691.2c15.936 0 28.992 13.12 28.992 29.056a29.12 29.12 0 0 1-28.992 28.992zM549.056 504.576H336.768a29.12 29.12 0 0 1-29.056-28.992c0-15.936 13.12-28.992 29.056-28.992h212.224c15.936 0 28.992 13.056 28.992 28.992a28.8 28.8 0 0 1-28.992 28.992z m-125.184 180.416h-87.04a29.12 29.12 0 0 1-29.056-29.056c0-15.936 13.12-28.992 29.056-28.992h87.04c15.936 0 28.992 13.056 28.992 28.992a29.12 29.12 0 0 1-28.992 29.056z" fill="#666A7A" p-id="7314"></path><path d="M537.6 922.88a26.304 26.304 0 0 1-18.176-7.424 26.688 26.688 0 0 1-7.424-22.208l18.24-109.824a28.672 28.672 0 0 1 7.36-14.208L794.88 512c10.24-10.24 26.176-10.24 36.416 0l92.16 92.16c10.24 10.24 10.24 26.24 0 36.48l-256.64 256.64a26.496 26.496 0 0 1-14.208 7.36l-110.976 18.176c-1.088-0.576-2.24 0-3.968 0z m42.688-123.52l-10.816 65.984 67.2-10.816 232.704-232.704-55.808-55.744-233.28 233.28z" fill="#0F49ED" p-id="7315"></path></svg>