<?xml version="1.0" standalone="no"?><!DOCTYPE svg PUBLIC "-//W3C//DTD SVG 1.1//EN" "http://www.w3.org/Graphics/SVG/1.1/DTD/svg11.dtd"><svg t="1615383754316" class="icon" viewBox="0 0 1024 1024" version="1.1" xmlns="http://www.w3.org/2000/svg" p-id="6258" xmlns:xlink="http://www.w3.org/1999/xlink" width="200" height="200"><defs><style type="text/css"></style></defs><path d="M337.664 528.832H185.664c-65.216 0-121.664 56.448-121.664 121.6v152.064c0 65.216 56.448 121.664 121.6 121.664h152.064c69.504 0 121.664-52.16 121.664-121.6v-152.064c0-65.216-56.448-121.664-121.6-121.664z m52.16 273.664c0 30.464-21.76 52.16-52.16 52.16H185.664c-30.464 0-52.16-21.76-52.16-52.16v-152c0-30.464 21.76-52.16 52.16-52.16h152c30.464 0 52.16 21.76 52.16 52.16v152zM337.664 64H185.664C120.448 64 64 120.448 64 185.6v152.064c0 65.216 56.448 121.664 121.6 121.664h152.064c69.504 0 121.664-52.16 121.664-121.6V185.6C459.328 120.448 402.88 64 337.728 64z m52.16 273.664c0 30.464-21.76 52.16-52.16 52.16H185.664c-30.464 0-52.16-21.76-52.16-52.16V185.664c0-30.464 21.76-52.16 52.16-52.16h152c30.464 0 52.16 21.76 52.16 52.16v152z m421.376 191.168H659.2c-65.152 0-121.6 56.448-121.6 121.6v152.064c0 65.216 56.448 121.664 121.6 121.664h152.064c65.152 0 121.6-56.448 121.6-121.6v-152.064c0-65.216-56.448-121.664-121.6-121.664z m52.16 273.664c0 30.464-21.76 52.16-52.16 52.16H659.2c-30.4 0-52.096-21.76-52.096-52.16v-152c0-30.464 21.76-52.16 52.096-52.16h152.064c30.4 0 52.16 21.76 52.16 52.16v152z" fill="#000622" fill-opacity=".6" p-id="6259"></path><path d="M815.552 64h-152.064c-65.152 0-121.6 56.448-121.6 121.6v152.064c0 65.216 56.448 121.664 121.6 121.664h152.064c65.152 0 121.6-56.448 121.6-121.6V185.6c0-65.216-56.448-121.664-121.6-121.664z m52.16 273.664c0 30.464-21.76 52.16-52.16 52.16h-152.064c-30.4 0-52.096-21.76-52.096-52.16V185.664c0-30.464 21.76-52.16 52.096-52.16h152.064c30.4 0 52.16 21.76 52.16 52.16v152z" fill="#0F49ED" p-id="6260"></path></svg>