<?xml version="1.0" encoding="UTF-8"?>
<svg width="200" height="200" viewBox="0 0 32 32" version="1.1" xmlns="http://www.w3.org/2000/svg" xmlns:xlink="http://www.w3.org/1999/xlink">
    <!-- Generator: Sketch 52.4 (67378) - http://www.bohemiancoding.com/sketch -->
    <title>婴儿男</title>
    <desc>Created with Sketch.</desc>
    <defs>
        <circle id="path-1" cx="16" cy="16" r="16"></circle>
    </defs>
    <g id="全局样式" stroke="none" stroke-width="1" fill="none" fill-rule="evenodd">
        <g id="Avatar头像" transform="translate(-227.000000, -182.000000)">
            <g id="1.基础/2.图标/头像/2维头像/婴儿男" transform="translate(227.000000, 182.000000)">
                <mask id="mask-2" fill="white">
                    <use xlink:href="#path-1"></use>
                </mask>
                <use id="圆底" fill="#E6F3FE" fill-rule="evenodd" xlink:href="#path-1"></use>
                <path d="M7.40358303,32.5140625 L25.4346132,32.5140625 C25.4346132,32.5140625 25.5262071,27.5525472 25.4346132,25.6624115 C25.3437825,23.7722758 23.9454484,21.6754197 22.2425644,21.22216 C20.5396804,20.7689002 18.8161878,20.48 18.8161878,20.48 L13.826608,20.48 C13.826608,20.48 7.78217132,21.4797132 7.40358303,24.6838787 C7.02499475,27.8880441 7.40358303,29.7657121 7.40358303,29.7657121 C7.40358303,29.7657121 7.40358303,30.6818289 7.40358303,32.5140625 Z" id="Fill-7" fill="#9CC4FF" fill-rule="evenodd" mask="url(#mask-2)"></path>
                <path d="M66.8802234,60.4650947 L66.8802234,55.7982812 C66.8802234,51.4521973 70.4034205,47.9290002 74.7495045,47.9290002 C79.0955884,47.9290002 82.6187855,51.4521973 82.6187855,55.7982812 L82.6187855,60.0787912 C80.2184731,61.5166633 77.4099361,62.343189 74.4083537,62.343189 C71.6868061,62.343189 69.1239635,61.6636918 66.8802234,60.4650947 Z" id="身体" fill="#9CC4FF" fill-rule="evenodd" mask="url(#mask-2)"></path>
                <ellipse id="围兜" fill="#FFD86F" fill-rule="evenodd" mask="url(#mask-2)" cx="74.6245952" cy="53.0335037" rx="5.24618736" ry="5.35350374"></ellipse>
                <ellipse id="围兜" fill="#FFC83E" fill-rule="evenodd" mask="url(#mask-2)" cx="74.6245952" cy="51.5395027" rx="3.74727669" ry="3.73500261"></ellipse>
                <path d="M8.58280899,12.1736553 C9.14704774,11.3297426 9.81899133,10.8765605 10.5808984,11.1137489 C11.3428055,11.3509374 11.5912502,13.0765163 10.8453953,14.0321237 C10.0995404,14.9877311 9.20808612,15.0348953 8.52664979,15.0345614 C8.0723589,15.0343389 7.8882674,14.5826873 7.97437529,13.6796068 C8.00383859,13.2382476 8.20664982,12.7362637 8.58280899,12.1736553 Z" id="耳朵" fill="#FDD1C1" fill-rule="evenodd" mask="url(#mask-2)" transform="translate(9.624214, 13.042792) scale(-1, 1) rotate(-7.000000) translate(-9.624214, -13.042792) "></path>
                <path d="M21.5735748,12.1736553 C22.1378136,11.3297426 22.8097572,10.8765605 23.5716643,11.1137489 C24.3335713,11.3509374 24.5820161,13.0765163 23.8361612,14.0321237 C23.0903062,14.9877311 22.198852,15.0348953 21.5174157,15.0345614 C21.0631248,15.0343389 20.8790333,14.5826873 20.9651412,13.6796068 C20.9946044,13.2382476 21.1974157,12.7362637 21.5735748,12.1736553 Z" id="耳朵" fill="#FDD1C1" fill-rule="evenodd" mask="url(#mask-2)" transform="translate(22.614980, 13.042792) rotate(-7.000000) translate(-22.614980, -13.042792) "></path>
                <rect id="脖子" fill="#FDD1C1" fill-rule="evenodd" mask="url(#mask-2)" x="13.2184201" y="13.6018084" width="5.9956427" height="10.4580073" rx="2.99782135"></rect>
                <path d="M11.3815617,20.636855 C11.3815617,20.636855 10.7535718,20.740656 10.3126247,20.9130859 C9.87083123,21.0846579 9.6,21.274245 9.6,21.274245 C9.6,21.274245 11.1098841,23.218156 11.3646348,24.714264 C11.6193854,26.2112299 12.8948312,27.3830668 16.3022267,27.5126036 C19.7104685,27.6412826 20.7954861,26.0688251 21.1771889,24.5203876 C21.5588917,22.972808 23.04,21.188459 23.04,21.188459 C23.04,21.188459 22.7852494,20.8247263 22.1741864,20.636855 C21.5631234,20.4481257 21.2575919,20.4824401 21.2575919,20.4824401 C21.2575919,20.4824401 19.9686045,22.0480348 16.6255315,22.0480348 C13.2824584,22.0480348 11.3815617,20.636855 11.3815617,20.636855" id="Fill-19" fill="#FFFFFF" fill-rule="evenodd" mask="url(#mask-2)"></path>
                <path d="M11.3722866,24.4820209 C11.3722866,24.4820209 11.002705,24.7894723 11.2721039,25.2806877 C11.5423446,25.7719032 11.8403671,25.7860389 11.8403671,25.7860389 C11.8403671,25.7860389 11.8075341,26.3921068 12.1846925,26.6730538 C12.5618508,26.9557677 13.0737086,26.8709535 13.0737086,26.8709535 C13.0737086,26.8709535 13.1191697,27.3135775 13.8280254,27.5061764 C14.5368811,27.6996587 14.9182488,27.3683533 14.9182488,27.3683533 C14.9182488,27.3683533 15.3981155,27.8189287 15.9293364,27.8189287 C16.4613991,27.8189287 16.8789673,27.5061764 16.8789673,27.5061764 C16.8789673,27.5061764 17.3217917,27.9390821 17.9809769,27.8189287 C18.6384785,27.6996587 18.6864652,27.2243459 18.6864652,27.2243459 C18.6864652,27.2243459 19.2715658,27.5264964 19.7657443,27.2340642 C20.2590809,26.9425155 20.1437445,26.3550006 20.1437445,26.3550006 C20.1437445,26.3550006 20.8163998,26.4504166 21.0950592,25.9857056 C21.3728768,25.5201111 21.0007696,24.9555667 21.0007696,24.9555667 C21.0007696,24.9555667 21.6389081,24.7956566 21.7407746,24.2611506 C21.8417991,23.7275281 21.5117855,23.4147758 21.5117855,23.4147758 L10.9926026,23.36 C10.9926026,23.36 10.7897116,23.6603835 10.9286203,24.0058246 C11.068371,24.3512657 11.3722866,24.4820209 11.3722866,24.4820209" id="Fill-23" fill="#FFFFFF" fill-rule="evenodd" mask="url(#mask-2)"></path>
                <path d="M16.2162415,5.13580247 L16.2162415,5.13580247 C19.8034853,5.13580247 22.7115211,8.0438382 22.7115211,11.6310821 L22.7115211,13.8295335 C22.7115211,17.4167773 19.8034853,20.3248131 16.2162415,20.3248131 L16.2162415,20.3248131 C12.6289976,20.3248131 9.72096189,17.4167773 9.72096189,13.8295335 L9.72096189,11.6310821 C9.72096189,8.0438382 12.6289976,5.13580247 16.2162415,5.13580247 Z" id="脸" fill="#FFE6D0" fill-rule="evenodd" mask="url(#mask-2)"></path>
                <path d="M14.9614213,5.13580247 L17.4710616,5.13580247 C18.4336946,5.13580247 19.2140628,5.9161707 19.2140628,6.87880369 L19.2140628,6.87880369 C19.2140628,7.93022947 18.5702753,8.87441959 17.5915031,9.25847833 L15.966423,9.89614069 L14.7996724,9.35508153 C13.8354164,8.90792555 13.2184201,7.94169508 13.2184201,6.87880369 L13.2184201,6.87880369 C13.2184201,5.9161707 13.9987884,5.13580247 14.9614213,5.13580247 Z" id="头发" fill="#A06835" fill-rule="evenodd" mask="url(#mask-2)"></path>
                <rect id="奶嘴" fill="#FFCDCD" fill-rule="evenodd" mask="url(#mask-2)" x="13.9678755" y="15.3448096" width="4.49673203" height="2.98800209" rx="1.49400104"></rect>
                <g id="奶嘴" stroke-width="1" fill-rule="evenodd" mask="url(#mask-2)">
                    <g transform="translate(14.967149, 15.593810)">
                        <ellipse stroke="none" fill="#9CC4FF" fill-rule="evenodd" cx="1.24909223" cy="1.24500087" rx="1.24909223" ry="1.24500087"></ellipse>
                        <ellipse stroke="none" fill="#7EB2FF" fill-rule="evenodd" cx="1.24909223" cy="1.24500087" rx="1" ry="1"></ellipse>
                        <ellipse stroke="#7EB2FF" stroke-width="1.89" fill="none" cx="1.24909223" cy="1.99200139" rx="1" ry="1"></ellipse>
                    </g>
                </g>
            </g>
        </g>
    </g>
</svg>