<svg xmlns="http://www.w3.org/2000/svg" width="40" height="41.416" viewBox="0 0 40 41.416">
  <path d="M5.858,35.559a20,20,0,0,1,0-28.284A20.241,20.241,0,0,1,9,4.705V8.465A17,17,0,1,0,29,7V3.544A20,20,0,1,1,5.858,35.559Zm1.435-14.7L9.93,18.22,18.415,26.7l12.3-12.3,2.829,2.829L18.607,32.171ZM11.457,8.9a1.5,1.5,0,0,1,1.856-2.357c.059.046,3.1,2.387,5.869,2.387,2.315,0,4.892-1.707,5.689-2.365A1.5,1.5,0,1,1,26.78,8.88c-.15.125-3.743,3.052-7.6,3.052C15.346,11.932,11.615,9.025,11.457,8.9ZM21.764,2.03A2.031,2.031,0,1,1,23.8,4.062,2.031,2.031,0,0,1,21.764,2.03Zm-9.378,0a2.031,2.031,0,1,1,2.03,2.031A2.03,2.03,0,0,1,12.386,2.03Z"  fill="currentColor"/>
</svg>




