<?xml version="1.0" standalone="no"?><!DOCTYPE svg PUBLIC "-//W3C//DTD SVG 1.1//EN" "http://www.w3.org/Graphics/SVG/1.1/DTD/svg11.dtd"><svg t="1615792133501" class="icon" viewBox="0 0 1024 1024" version="1.1" xmlns="http://www.w3.org/2000/svg" p-id="2875" xmlns:xlink="http://www.w3.org/1999/xlink" width="200" height="200"><defs><style type="text/css"></style></defs><path d="M96.384 377.28c17.6 0 31.936 14.08 32.32 31.616v140.992c0 135.232 101.952 244.352 227.648 246.528h387.2v-78.656a19.904 19.904 0 0 1 30.528-16.896l176.64 111.168a19.968 19.968 0 0 1 0 33.792l-176.64 111.104a19.84 19.84 0 0 1-30.528-16.896v-78.72h-383.36c-162.368 0-293.568-136.96-296.128-306.24L64 549.952V409.6c0-17.92 14.464-32.384 32.384-32.384z m201.024-303.936c1.984 3.2 3.072 6.848 3.072 10.624v78.72h360.96c162.368 0 293.568 136.96 296.128 306.24V614.4a32.384 32.384 0 0 1-64.64 0.768V474.112c0-135.232-101.952-244.352-227.648-246.528H300.48v78.656a19.904 19.904 0 0 1-30.528 16.896l-176.64-111.168a19.968 19.968 0 0 1 0-33.792l176.64-111.104a19.84 19.84 0 0 1 27.52 6.272z" fill="#6A6F8A" p-id="2876"></path></svg>