<?xml version="1.0" standalone="no"?><!DOCTYPE svg PUBLIC "-//W3C//DTD SVG 1.1//EN" "http://www.w3.org/Graphics/SVG/1.1/DTD/svg11.dtd"><svg t="1630395365643" class="icon" viewBox="0 0 1040 1024" version="1.1" xmlns="http://www.w3.org/2000/svg" p-id="7044" xmlns:xlink="http://www.w3.org/1999/xlink" width="203.125" height="200"><defs><style type="text/css"></style></defs><path d="M863.904 592H168c-4.4 0-8 3.6-8 8v60c0 4.4 3.6 8 8 8h605.2l-144.304 183.008A8.048 8.048 0 0 0 635.2 864h72.496c4.896 0 9.504-2.208 12.608-6.096l168.8-214.112c16.496-20.992 1.6-51.792-25.2-51.792zM888 356H282.8l144.304-183.008A8.048 8.048 0 0 0 420.8 160h-72.496c-4.896 0-9.504 2.192-12.608 6.096l-168.8 214.096C150.4 401.2 165.296 432 192 432h696c4.4 0 8-3.6 8-8v-60c0-4.4-3.6-8-8-8z" fill="#000000" p-id="7045"></path></svg>