<?xml version="1.0" standalone="no"?><!DOCTYPE svg PUBLIC "-//W3C//DTD SVG 1.1//EN" "http://www.w3.org/Graphics/SVG/1.1/DTD/svg11.dtd"><svg t="1614064794161" class="icon" viewBox="0 0 1024 1024" version="1.1" xmlns="http://www.w3.org/2000/svg" p-id="1956" xmlns:xlink="http://www.w3.org/1999/xlink" width="200" height="200"><defs><style type="text/css"></style></defs><path d="M509.23 113.22c54.03 0 106.41 10.56 155.67 31.4 47.62 20.14 90.4 48.99 127.16 85.75 36.76 36.76 65.61 79.54 85.75 127.16 20.84 49.26 31.4 101.63 31.4 155.67s-10.56 106.41-31.4 155.67c-20.14 47.62-48.99 90.4-85.75 127.16-36.76 36.76-79.54 65.61-127.16 85.75-49.26 20.84-101.63 31.4-155.67 31.4s-106.41-10.56-155.67-31.4c-47.62-20.14-90.4-48.99-127.16-85.75-36.76-36.76-65.61-79.54-85.75-127.16-20.84-49.26-31.4-101.63-31.4-155.67s10.56-106.41 31.4-155.67c20.14-47.62 48.99-90.4 85.75-127.16 36.76-36.76 79.54-65.61 127.16-85.75 49.26-20.84 101.63-31.4 155.67-31.4m0-80c-257.53 0-467.69 202.82-479.46 457.45-13.29 287.59 214.41 515.29 502 502 254.62-11.77 457.45-221.93 457.45-479.46-0.01-265.09-214.91-479.99-479.99-479.99z"  p-id="1957"></path></svg>