<?xml version="1.0" standalone="no"?><!DOCTYPE svg PUBLIC "-//W3C//DTD SVG 1.1//EN" "http://www.w3.org/Graphics/SVG/1.1/DTD/svg11.dtd"><svg t="1717739531758" class="icon" viewBox="0 0 1024 1024" version="1.1" xmlns="http://www.w3.org/2000/svg" p-id="1673" xmlns:xlink="http://www.w3.org/1999/xlink" width="200" height="200"><path d="M835.92 868.22H186.08a45.9 45.9 0 0 1-45.85-45.85V204.08a45.91 45.91 0 0 1 45.85-45.86h649.84a45.91 45.91 0 0 1 45.85 45.86v618.29a45.9 45.9 0 0 1-45.85 45.85z m-649.84-694a29.89 29.89 0 0 0-29.85 29.86v618.29a29.88 29.88 0 0 0 29.85 29.85h649.84a29.88 29.88 0 0 0 29.85-29.85V204.08a29.89 29.89 0 0 0-29.85-29.86z" fill="#000000" p-id="1674"></path><path d="M798.06 395H223.94A27 27 0 0 1 197 368.11V248.24a27 27 0 0 1 26.93-26.93h574.13A27 27 0 0 1 825 248.24v119.87A27 27 0 0 1 798.06 395zM223.94 237.31A10.94 10.94 0 0 0 213 248.24v119.87A10.94 10.94 0 0 0 223.94 379h574.12A10.94 10.94 0 0 0 809 368.11V248.24a10.94 10.94 0 0 0-10.93-10.93zM798.06 745.19H719.2a27 27 0 0 1-26.93-26.92v-205a27 27 0 0 1 26.93-26.93h78.86A27 27 0 0 1 825 513.22v205a27 27 0 0 1-26.94 26.97z m-78.86-242.9a10.94 10.94 0 0 0-10.93 10.93v205a10.94 10.94 0 0 0 10.93 10.92h78.86A10.94 10.94 0 0 0 809 718.27v-205a10.94 10.94 0 0 0-10.93-10.93zM255.48 593.78A58.48 58.48 0 1 1 314 535.3a58.54 58.54 0 0 1-58.52 58.48z m0-100.95A42.48 42.48 0 1 0 298 535.3a42.52 42.52 0 0 0-42.52-42.47zM422.67 593.78a58.48 58.48 0 1 1 58.48-58.48 58.54 58.54 0 0 1-58.48 58.48z m0-100.95a42.48 42.48 0 1 0 42.48 42.47 42.52 42.52 0 0 0-42.48-42.47zM589.86 593.78a58.48 58.48 0 1 1 58.48-58.48 58.54 58.54 0 0 1-58.48 58.48z m0-100.95a42.48 42.48 0 1 0 42.48 42.47 42.52 42.52 0 0 0-42.48-42.47zM255.48 748.35A58.48 58.48 0 1 1 314 689.88a58.54 58.54 0 0 1-58.52 58.47z m0-101A42.48 42.48 0 1 0 298 689.88a42.52 42.52 0 0 0-42.52-42.48zM422.67 748.35a58.48 58.48 0 1 1 58.48-58.47 58.54 58.54 0 0 1-58.48 58.47z m0-101a42.48 42.48 0 1 0 42.48 42.48 42.52 42.52 0 0 0-42.48-42.43zM589.86 748.35a58.48 58.48 0 1 1 58.48-58.47 58.54 58.54 0 0 1-58.48 58.47z m0-101a42.48 42.48 0 1 0 42.48 42.48 42.52 42.52 0 0 0-42.48-42.43z" fill="#000000" p-id="1675"></path></svg>