<?xml version="1.0" encoding="UTF-8"?>
<svg width="16px" height="16px" viewBox="0 0 16 16" version="1.1" xmlns="http://www.w3.org/2000/svg" xmlns:xlink="http://www.w3.org/1999/xlink">
    <g id="页面-1" stroke="none" stroke-width="1">
        <g id="未收藏">
            <rect id="矩形" fill-opacity="0" fill="#D8D8D8" x="0" y="0" width="16" height="16"></rect>
            <path d="M11.0653,1 C13.236,1 15,2.932 15,5.3022 C15,6.43228 14.5968,7.296696 14.173888,8.0061936 L13.859,8.511 C13.5073605,9.05893421 13.0308161,9.63922355 12.5061369,10.2073962 L12.1500621,10.583895 L11.7847799,10.9538754 C11.7234131,11.0148329 11.6618733,11.0753968 11.6002657,11.1355062 L11.2306503,11.4902188 L10.8644646,11.8310927 L10.3326741,12.3100504 L9.83703371,12.7413999 L9.1376359,13.3276781 L8.5033,13.8345 C8.24161781,14.0427073 7.88296961,14.0658414 7.59973941,13.9039024 L7.47750923,13.8193733 L6.86198532,13.3288468 L6.46386567,12.9994997 L6.00114598,12.6060913 L5.49096068,12.1584235 L5.13292879,11.8346748 L4.76649324,11.4940716 L4.39673086,11.1395182 L4.02871854,10.7739189 C3.29782853,10.0336105 2.6079,9.24445263 2.1417,8.511 L1.93248441,8.18061493 C1.4732,7.43944622 1,6.52645333 1,5.3022 C1,2.9313 2.764,1 4.9347,1 C6.1401,1 7.2657,1.6062 8,2.6044 C8.7427,1.6069 9.8599,1 11.0653,1 Z M11.0653,2.5 C10.4200195,2.5 9.79320538,2.80296831 9.32637732,3.34615597 L9.2031335,3.50020677 L7.99271993,5.12588005 L6.79171381,3.49324447 C6.32714153,2.8617096 5.64140519,2.5 4.9347,2.5 C3.62475597,2.5 2.5,3.73030978 2.5,5.3022 C2.5,6.10299737 2.7305382,6.65042313 3.40761623,7.70635343 C3.88622811,8.45933314 4.71893013,9.38562354 5.77386818,10.3823707 L6.31924644,10.8861395 L6.81472653,11.3260607 L7.29685786,11.740583 L7.74112236,12.111596 L7.999,12.322 L8.46769686,11.9362841 L9.07973786,11.4136124 L9.50993115,11.0342909 L9.95438555,10.6300029 L10.4821217,10.1307826 C11.4153449,9.22697233 12.1537773,8.39086696 12.5954722,7.70260801 C13.2707544,6.64713268 13.5,6.10265184 13.5,5.3022 C13.5,3.73073448 12.3749821,2.5 11.0653,2.5 Z" id="路径"></path>
        </g>
    </g>
</svg>