<?xml version="1.0" encoding="UTF-8"?>
<svg width="16px" height="16px" viewBox="0 0 16 16" version="1.1" xmlns="http://www.w3.org/2000/svg" xmlns:xlink="http://www.w3.org/1999/xlink">
    <g id="页面-1" stroke="none" stroke-width="1">
        <g id="收藏">
            <rect id="矩形" fill-opacity="0" x="0" y="0" width="16" height="16"></rect>
            <path d="M11.0653,1 C9.8599,1 8.7427,1.6069 8,2.6044 C7.2657,1.6062 6.1401,1 4.9347,1 C2.764,1 1,2.9313 1,5.3022 C1,6.7148 1.63,7.713 2.1417,8.511 C3.618,10.8336 7.3378,13.7148 7.4974,13.8345 C7.79179246,14.0687332 8.20890754,14.0687332 8.5033,13.8345 C8.6629,13.7148 12.3743,10.8245 13.859,8.511 C14.37,7.7123 15,6.7148 15,5.3022 C15,2.932 13.236,1 11.0653,1 Z" id="路径" ></path>
        </g>
    </g>
</svg>