<svg id="图层_1" data-name="图层 1" xmlns="http://www.w3.org/2000/svg" viewBox="0 0 20 20">
<path class="st0" d="M10,0C4.5,0,0,4.5,0,10s4.5,10,10,10s10-4.5,10-10S15.5,0,10,0z M8.3,6.4h3.3V5H8.8V4.1h2.7V2.7h1.1v1.4h2.9V5
	h-2.9v1.3h2.8l0.2,0l0.7,0.2c-0.3,1-0.7,2.1-1.1,2.8l-0.9-0.2C14.5,8.6,14.8,8,15,7.3H8.3V6.4z M9.4,8.5l0.5-0.5
	c0.7,0.4,1.5,0.9,1.9,1.3l-0.6,0.6C10.8,9.4,10,8.9,9.4,8.5z M10.7,10.6l-0.6,0.6C9.8,10.8,9,10.2,8.3,9.8l0.6-0.6
	C9.5,9.6,10.3,10.2,10.7,10.6z M2.9,7.9C3.1,7.8,3.4,7.5,3.7,7c0.3-0.5,1.4-2.5,2-4.3l1,0.5C6.1,4.8,5.2,6.4,4.3,7.7l1.8-0.2
	C6.4,7,6.7,6.4,7,5.9l0.9,0.5C7,8,6,9.6,4.9,10.9l2.6-0.6c0,0.3,0,0.7,0.1,0.9c-3.5,0.9-4,1.1-4.3,1.3c0-0.2-0.2-0.7-0.3-0.9
	c0.3-0.1,0.6-0.4,1.1-1c0.3-0.3,0.8-1.1,1.4-2.1C3.8,8.7,3.4,8.8,3.2,8.9C3.2,8.7,3,8.2,2.9,7.9z M3.2,15.4l-0.3-1
	c1.1-0.3,2.9-1,4.5-1.6l0.2,0.9C6.1,14.3,4.5,14.9,3.2,15.4z M8.4,16.4c-0.1-0.3-0.4-0.6-0.7-0.8c2.1-0.9,3.2-2,3.7-3.1H8v-1h3.8
	c0.2-0.6,0.2-1.2,0.2-1.8V7.9h1v1.8c0,0.6,0,1.2-0.1,1.8h3.4v1h-3.7C12.1,13.9,10.9,15.3,8.4,16.4z M15.9,16.4
	c-0.7-0.8-2.1-2-3.3-2.8l0.7-0.6c1.2,0.8,2.6,1.9,3.3,2.7L15.9,16.4z"/>
</svg>
