<?xml version="1.0" standalone="no"?><!DOCTYPE svg PUBLIC "-//W3C//DTD SVG 1.1//EN" "http://www.w3.org/Graphics/SVG/1.1/DTD/svg11.dtd"><svg t="1614156584116" class="icon" viewBox="0 0 1024 1024" version="1.1" xmlns="http://www.w3.org/2000/svg" p-id="2430" xmlns:xlink="http://www.w3.org/1999/xlink" width="200" height="200"><defs><style type="text/css"></style></defs><path d="M512 1024C229.256 1024 0 794.792 0 512 0 229.2 229.256 0 512 0c282.792 0 512 229.2 512 512 0 282.792-229.208 512-512 512z m-67.6-396.832l-147.712-148.96c-9.256-8.456-23.936-8.456-32.552 0l-17.52 17.52c-3.8 3.848-6.264 9.784-6.264 16.272 0 5.896 2.464 11.824 6.256 16.272l181.52 181.52a24.8 24.8 0 0 0 16.272 6.256c6.224 0 12.144-2.472 17.52-6.256l339.256-340.504c3.8-4.56 6.256-10.48 6.256-16.272 0-6.576-2.456-12.496-6.256-16.272l-17.528-17.52c-8.584-8.528-23.264-8.528-32.544 0L444.4 627.16z" fill="#00C853" p-id="2431"></path></svg>