<?xml version="1.0" standalone="no"?><!DOCTYPE svg PUBLIC "-//W3C//DTD SVG 1.1//EN" "http://www.w3.org/Graphics/SVG/1.1/DTD/svg11.dtd"><svg t="1614043230282" class="icon" viewBox="0 0 1024 1024" version="1.1" xmlns="http://www.w3.org/2000/svg" p-id="1830" xmlns:xlink="http://www.w3.org/1999/xlink" width="200" height="200"><defs><style type="text/css"></style></defs><path d="M509.994667 336.341333c104.618667 0 163.157333 40.32 167.04 43.093334a156.16 156.16 0 0 0 0.213333-8.149334V205.44S616.661333 160.554667 512 160.554667 342.741333 205.44 342.741333 205.44v165.845333c0 2.730667 0.085333 5.418667 0.213334 8.106667 3.882667-2.730667 62.421333-43.093333 167.04-43.093333z m108.288 356.522667H407.210667a187.136 187.136 0 0 0-187.178667 187.050667c0 18.389333 14.890667 33.28 33.28 33.28h518.826667c18.389333 0 33.28-14.890667 33.28-33.28a187.136 187.136 0 0 0-187.136-187.050667z" fill="#ACE5FF" p-id="1831"></path><path d="M481.834667 307.712h61.269333v-37.376h37.248V208.938667h-37.248v-37.376h-61.269333v37.376h-37.248v61.397333h37.248v37.376z m190.421333 299.178667a254.08 254.08 0 0 0 91.008-194.986667v-250.453333l-11.690667-9.173334C747.946667 149.333333 660.778667 81.92 512.469333 81.92c-147.754667 0-239.914667 66.901333-243.797333 69.76l-12.416 9.216v251.008c-0.042667 75.52 33.536 147.2 91.562667 195.456A273.408 273.408 0 0 0 112.64 878.08a64 64 0 0 0 63.829333 64h671.061334a64 64 0 0 0 63.829333-64 273.365333 273.365333 0 0 0-239.104-271.189333zM512.426667 143.317333c97.28 0 163.925333 33.792 189.568 49.450667v178.346667c-40.618667-18.602667-105.472-39.552-192.298667-39.552-86.784 0-151.637333 20.906667-192.256 39.552v-177.92c26.965333-15.872 96.426667-49.877333 194.986667-49.877334z m-193.024 295.808c26.88-15.530667 92.330667-46.122667 190.293333-46.122666 98.048 0 163.541333 30.634667 190.336 46.122666a192.725333 192.725333 0 0 1-190.293333 165.632 192.725333 192.725333 0 0 1-190.336-165.632z m40.021333 344.106667a13.525333 13.525333 0 1 1-27.008-0.085333 13.525333 13.525333 0 0 1 27.008 0.085333z m488.106667 97.450667H176.426667a2.602667 2.602667 0 0 1-2.56-2.602667 212.181333 212.181333 0 0 1 147.2-201.941333 189.866667 189.866667 0 0 0-5.546667 38.698666 74.752 74.752 0 1 0 61.226667 0.170667c0.981333-16.938667 5.290667-33.578667 12.714666-48.853333h230.4c7.381333 15.317333 11.690667 31.957333 12.586667 48.938666a75.008 75.008 0 0 0-43.776 68.138667v56.021333h61.226667v-56.021333a13.525333 13.525333 0 0 1 27.008 0v56.021333h61.226666v-56.021333c0-29.525333-17.322667-56.32-44.288-68.394667a190.464 190.464 0 0 0-6.613333-43.008 212.096 212.096 0 0 1 162.858667 206.250667c0 1.408-1.194667 2.56-2.602667 2.56z" fill="#242F44" p-id="1832"></path></svg>