<?xml version="1.0" standalone="no"?><!DOCTYPE svg PUBLIC "-//W3C//DTD SVG 1.1//EN" "http://www.w3.org/Graphics/SVG/1.1/DTD/svg11.dtd"><svg t="1615792116527" class="icon" viewBox="0 0 1024 1024" version="1.1" xmlns="http://www.w3.org/2000/svg" p-id="2500" xmlns:xlink="http://www.w3.org/1999/xlink" width="200" height="200"><defs><style type="text/css"></style></defs><path d="M795.392 930.752c21.632 0 39.104 18.368 39.104 41.088 0 22.656-17.472 41.024-39.104 41.024H103.04c-21.568 0-39.104-18.368-39.104-41.024 0-22.72 17.536-41.088 39.104-41.088h692.288zM101.312 875.328L195.328 611.84l153.28 160.832-247.296 102.72zM380.032 742.4L225.472 580.16 645.632 142.72l154.56 162.176-420.16 437.44z m448.96-471.168L674.56 108.992 751.744 27.904a63.424 63.424 0 0 1 92.736 0l61.824 64.896c25.6 26.88 25.6 70.4 0 97.28l-77.312 81.088z" fill="#000000" p-id="2501"></path></svg>