<?xml version="1.0" standalone="no"?><!DOCTYPE svg PUBLIC "-//W3C//DTD SVG 1.1//EN" "http://www.w3.org/Graphics/SVG/1.1/DTD/svg11.dtd"><svg t="1615792129240" class="icon" viewBox="0 0 1024 1024" version="1.1" xmlns="http://www.w3.org/2000/svg" p-id="2750" xmlns:xlink="http://www.w3.org/1999/xlink" width="200" height="200"><defs><style type="text/css"></style></defs><path d="M244.942933 946.688v-376.362667a55.765333 55.765333 0 0 0-55.765333-55.637333l-127.061333 0.170667c-0.085333-0.128-0.213333-0.469333-0.085334-0.469334l450.261334-410.069333 450.133333 409.898667-110.464 0.469333c-30.72 0-55.68 24.874667-55.765333 55.637333v48.725334h61.781333v-42.752h104.234667a61.866667 61.866667 0 0 0 41.130666-108.032l-450.048-410.026667a62.165333 62.165333 0 0 0-82.218666 0L20.9856 468.266667a61.738667 61.738667 0 0 0 41.130667 108.032h121.002666v370.389333A77.525333 77.525333 0 0 0 260.644267 1024h566.485333v-61.610667H260.644267a15.744 15.744 0 0 1-15.701334-15.701333zM564.2176 682.666667v-75.904H682.830933V545.28h-118.613333V426.666667h-61.525333v118.570666H384.164267v61.525334h118.570666V725.333333h61.525334v-42.666666z m163.541333 0l35.968 40.106666-36.352 40.533334 254.08 0.085333v56.746667l-255.36-0.128 37.632 41.984-35.968 40.106666-79.786666-89.002666A30.848 30.848 0 0 1 640.164267 792.32a31.744 31.744 0 0 1 7.850666-20.736L727.8016 682.666667z" fill="#6A6F8A" p-id="2751"></path></svg>