<?xml version="1.0" encoding="UTF-8"?>
<svg width="36px" height="36px" viewBox="0 0 36 36" version="1.1" xmlns="http://www.w3.org/2000/svg" xmlns:xlink="http://www.w3.org/1999/xlink">
    <title>女护士</title>
    <defs>
        <circle id="path-1" cx="17.9262295" cy="17.9262295" r="17.9262295"></circle>
    </defs>
    <g id="Avatar-头像（数据展示）" stroke="none" stroke-width="1" fill="none" fill-rule="evenodd">
        <g id="女护士">
            <mask id="mask-2" fill="white">
                <use xlink:href="#path-1"></use>
            </mask>
            <use id="底框" fill="#E6F3FE" xlink:href="#path-1"></use>
            <path d="M10.687216,13.7028091 C10.687216,13.9260907 10.6322976,15.7990269 10.687216,16.5885782 C11.2973568,18.2049293 10.7332586,20.6285322 9.45907242,24.212037 C8.18488624,27.7955419 9.46755682,31.8665026 10.687216,32.6005556 C11.844966,33.2973485 16.7680882,28.1930976 18.21819,28.1930976 C19.6682917,28.1930976 20.6902187,28.1183217 21.9177472,27.7829826 C22.6607089,27.5800186 23.6428634,33.449567 27.6096323,29.8467328 C29.2640051,28.3441418 26.6854128,26.2237564 26.3827356,21.7570452 C26.0800584,17.290334 26.133616,12.4753881 25.772651,11.1538773 C25.1555496,8.89463871 23.982389,7.28952741 21.9177472,6.48372936 C18.0241338,4.96411176 14.6985314,6.02736777 12.6719297,7.94629743 C11.2459993,9.29646905 10.687216,12.4976415 10.687216,13.7028091 Z" id="头发" fill="#79819B" mask="url(#mask-2)"></path>
            <path d="M22.1492589,26.7526519 C26.3709854,27.9405242 29.4435755,28.9525199 31.3670292,29.7886389 C28.0814745,33.5075137 23.2776977,35.852459 17.9262295,35.852459 C12.7442053,35.852459 8.0757384,33.6536592 4.80291253,30.1381433 C6.61356644,29.2398968 9.91914517,28.1113185 14.7181334,26.7526519 L14.7181334,26.7526519 L14.7977375,27.2326519 L22.1492589,26.7526519 Z" id="衣服" fill="#FFBBDB" mask="url(#mask-2)"></path>
            <path d="M15.5696177,20.917189 C15.0488403,24.9856192 14.6773742,27.2777525 14.4552194,27.7935891 C14.4552194,30.0869594 16.4770136,31.7923698 18.3758731,31.7923698 C20.2747325,31.7923698 22.1474204,30.0869594 22.1474204,27.7935891 C21.9488339,26.9240881 21.6436398,24.6319547 21.2318379,20.917189 L15.5696177,20.917189 Z" id="脖子" fill="#FDD1C1" mask="url(#mask-2)"></path>
            <path d="M13.0567451,16.469415 C12.648847,15.4945587 12.0765163,14.9340479 11.3097333,15.115698 C10.5429503,15.2973481 10.6084892,16.8220574 11.1727729,17.936667 C11.7370565,19.0512766 12.0091266,19.5199774 12.6616957,19.5879739 C13.0967418,19.633305 13.3438767,19.1603347 13.4031004,18.1690632 C13.4441289,17.6858686 13.3286771,17.1193193 13.0567451,16.469415 Z" id="耳朵" fill="#FDD1C1" mask="url(#mask-2)"></path>
            <path d="M23.4576489,16.3972298 C23.865547,15.4223734 24.4378776,14.8618627 25.2046606,15.0435128 C25.9714436,15.2251629 25.9059048,16.7498722 25.3416211,17.8644818 C24.7773374,18.9790914 24.5052674,19.4477922 23.8526983,19.5157887 C23.4176522,19.5611197 23.1705173,19.0881495 23.1112936,18.0968779 C23.0702651,17.6136834 23.1857169,17.0471341 23.4576489,16.3972298 Z" id="耳朵" fill="#FDD1C1" mask="url(#mask-2)"></path>
            <path d="M12.4855307,12.6652471 C12.2038812,13.6959143 12.243558,17.2676566 13.2051391,19.9872836 C14.1667202,22.7069107 17.1915599,25.1426281 18.3164722,25.1426281 C19.4413844,25.1426281 22.5305759,22.9218596 23.6174891,19.9872836 C24.3420979,18.0308997 24.5522591,15.365068 24.2479726,11.9897886 C16.5941109,11.7529828 12.6732969,11.9781356 12.4855307,12.6652471 Z" id="脸" fill="#FFE6D0" mask="url(#mask-2)"></path>
            <path d="M13.1919367,10.2005849 C13.7827087,11.4515539 17.6287824,14.2973141 19.811496,15.0095409 C21.2666385,15.4843588 22.8087859,15.5342104 24.4379382,15.1590957 C24.661832,14.3278923 24.7911621,13.7242627 24.8259287,13.3482069 C25.092,10.4702255 25.1028354,9.71331307 24.5868052,9.51151157 C23.6589865,9.14867389 16.0812037,8.98529886 15.8297557,8.98529886 C15.5783076,8.98529886 12.6011647,8.94961587 13.1919367,10.2005849 Z" id="头发" fill="#79819B" mask="url(#mask-2)"></path>
            <path d="M17.7590382,10.7769121 C17.2341576,11.5475436 16.0653788,14.0533199 13.4111685,14.6035651 C11.641695,14.9703952 10.7518865,14.693278 10.741743,13.7722137 C10.9015286,12.3604233 11.7106368,11.2447906 13.1690674,10.4253155 C15.3567134,9.19610288 16.8246863,10.0917785 17.2918622,10.0917785 C17.7590382,10.0917785 18.2839188,10.0062805 17.7590382,10.7769121 Z" id="头发" fill="#79819B" mask="url(#mask-2)"></path>
            <path d="M11.88,6.12 C14.04,5.4 16.2,5.04 18.36,5.04 C20.52,5.04 22.68,5.4 24.84,6.12 L22.9885714,11.52 C21.4457143,11.04 19.9028571,10.8 18.36,10.8 C16.8171429,10.8 15.2742857,11.04 13.7314286,11.52 L11.88,6.12 Z" id="矩形" fill="#FFFFFF" mask="url(#mask-2)"></path>
            <rect id="矩形" fill="#E58CA5" mask="url(#mask-2)" x="16.2" y="7.38" width="4.32" height="1.08"></rect>
            <polygon id="矩形" fill="#E58CA5" mask="url(#mask-2)" transform="translate(18.360000, 7.920000) rotate(-270.000000) translate(-18.360000, -7.920000) " points="16.2 7.38 20.52 7.38 20.52 8.46 16.2 8.46"></polygon>
            <path d="M4.32,30.2701955 C6.55221517,29.2683174 9.91280416,28.0582522 14.76,26.64 L16.56,36.72 C11.7746031,36.0482298 7.50429262,33.701614 4.32,30.2701955 Z M32.4,30.2397942 C29.310217,33.6695815 25.1666859,36.0241361 20.52,36.72 L21.96,26.64 C26.64,27.72 30.2030335,28.8836196 32.4,29.88 L32.4,30.2397942 Z" id="衣领备份" fill="#FFFFFF" mask="url(#mask-2)"></path>
        </g>
    </g>
</svg>