<?xml version="1.0" encoding="UTF-8"?>
<svg width="36px" height="36px" viewBox="0 0 36 36" version="1.1" xmlns="http://www.w3.org/2000/svg" xmlns:xlink="http://www.w3.org/1999/xlink">
    <title>女医生</title>
    <g id="Avatar-头像（数据展示）" stroke="none" stroke-width="1" fill="none" fill-rule="evenodd">
        <g id="女医生">
            <g>
                <circle id="圆框" fill="#E6F3FE" cx="18" cy="18" r="18"></circle>
                <path d="M10.3766026,14.1072385 C10.3766026,14.331439 10.3756303,15.7173868 10.4307748,16.5101872 C11.0434264,18.13319 13.6749539,18.8393791 13.4241398,21.8174327 C11.0434264,24.4412601 12.1994614,26.9017438 13.4241398,27.6388176 C14.5866542,28.3384779 16.4825176,28.6571578 17.9385868,28.6571578 C19.394656,28.6571578 20.4207885,28.5820742 21.6533685,28.2453551 C22.3993877,28.0415558 26.2059952,26.44419 22.7076109,21.8174327 C21.6184253,20.3769398 25.0253128,19.1835682 25.0253128,17.3722305 C25.0253128,14.3131833 24.7448521,12.3929085 24.1839307,11.6114061 L12.7873243,11.6114061 C11.1801765,12.4685429 10.3766026,13.3004871 10.3766026,14.1072385 Z" id="头发" fill="#79819B"></path>
                <path d="M14.7583181,21.0830253 C14.7583181,25.3147258 14.3248052,27.9289581 13.4577795,28.9257221 C14.7841831,30.6258063 16.3093593,32.146041 18.0333079,33.4864261 C20.1952765,31.5615113 21.6624486,30.0412767 22.4348244,28.9257221 C21.7224816,27.9289581 21.3663102,25.3147258 21.3663102,21.0830253 L14.7583181,21.0830253 Z" id="脖子" fill="#FDD1C1"></path>
                <path d="M20.492989,35.8287581 C19.6781577,35.9416509 18.8458929,36 18,36 C17.123355,36 16.261347,35.9373313 15.4182117,35.8162295 L14.1601307,28.8088235 C15.491817,30.6136775 16.8457048,31.5161045 18.2217941,31.5161045 C19.5978834,31.5161045 20.8192297,30.6136775 21.885833,28.8088235 L20.492989,35.8287581 L20.492989,35.8287581 Z" id="路径" fill="#E58CA5"></path>
                <path d="M15.5545191,35.8352757 C11.4308925,35.275154 7.75112127,33.3185468 5.00718299,30.4574315 C6.93070616,29.622066 9.98090744,28.6131142 14.1577868,27.4305761 L15.5545191,35.8352757 L15.5545191,35.8352757 Z M31.0216147,30.4273349 C28.2958979,33.2825662 24.6405952,35.2426872 20.5414239,35.8219804 L21.885833,27.4305761 C26.0382542,28.5989479 29.0835147,29.5978675 31.0216147,30.4273349 L31.0216147,30.4273349 Z" id="衣领" fill="#FFFFFF"></path>
                <path d="M12.7559014,16.8852296 C12.3463247,15.9063615 11.7716388,15.3435441 11.0017003,15.5259418 C10.2317618,15.7083394 10.2975703,17.2393232 10.8641762,18.3585196 C11.430782,19.4777161 11.7039717,19.9483457 12.3592263,20.0166221 C12.7960627,20.0621397 13.0442146,19.587223 13.103682,18.5918722 C13.1448793,18.1066892 13.0289525,17.5378084 12.7559014,16.8852296 Z" id="耳朵" fill="#FDD1C1"></path>
                <path d="M23.1996073,16.8127473 C23.6091839,15.8338792 24.1838699,15.2710618 24.9538084,15.4534595 C25.7237468,15.6358571 25.6579383,17.1668409 25.0913325,18.2860374 C24.5247266,19.4052338 24.2515369,19.8758635 23.5962824,19.9441398 C23.159446,19.9896574 22.9112941,19.5147408 22.8518267,18.5193899 C22.8106293,18.0342069 22.9265562,17.4653261 23.1996073,16.8127473 Z" id="耳朵" fill="#FDD1C1"></path>
                <path d="M12.1823363,13.0654066 C11.8995278,14.1003153 11.9393679,17.6867561 12.9049061,20.417575 C13.8704443,23.148394 16.9077319,25.5941349 18.0372734,25.5941349 C19.1668149,25.5941349 22.2687191,23.3642274 23.3601053,20.417575 C24.087696,18.4531401 24.298722,15.7763379 23.9931833,12.3871685 C16.3078243,12.1493882 12.3708753,12.3754675 12.1823363,13.0654066 Z" id="脸" fill="#FFE6D0"></path>
                <path d="M12.8916493,10.5906018 C13.4848525,11.8467189 17.3467536,14.70419 19.5384497,15.4193478 C20.9995804,15.8961196 22.548074,15.9461764 24.1839307,15.5695181 C24.4087458,14.7348941 24.5386082,14.1287804 24.5735179,13.751177 C24.8406841,10.861352 24.1068257,9.8349849 23.5886719,9.63235294 C22.657035,9.2680221 15.7928064,9.37031462 15.5403235,9.37031462 C15.2878407,9.37031462 12.2984462,9.33448478 12.8916493,10.5906018 Z" id="头发" fill="#79819B"></path>
                <path d="M17.4775455,11.1693007 C16.9505048,11.9431036 15.7769163,14.4591917 13.1117833,15.0117013 C11.335028,15.380041 10.4415578,15.1017834 10.4313725,14.1769287 C10.5918157,12.7593285 11.4042535,11.6391047 12.8686859,10.8162573 C15.0653346,9.58198614 16.5393485,10.4813476 17.008447,10.4813476 C17.4775455,10.4813476 18.0045861,10.3954978 17.4775455,11.1693007 Z" id="头发" fill="#79819B"></path>
                <path d="M17.7777778,6.66666667 C21.5139037,6.66666667 24.6762242,9.42532553 25.1832868,13.1268826 L25.3333333,14.2222222 L25.3333333,14.2222222 L10.2222222,14.2222222 L10.3722688,13.1268826 C10.8793314,9.42532553 14.0416519,6.66666667 17.7777778,6.66666667 Z" id="帽子" fill="#FFFFFF"></path>
                <path d="M10.4063786,14.0558506 L25.149177,14.0558506 C25.3736137,14.0558506 25.5555556,14.252107 25.5555556,14.4942016 C25.5555556,14.7362962 25.3736137,14.9325527 25.149177,14.9325527 L10.4063786,14.9325527 C10.1819419,14.9325527 10,14.7362962 10,14.4942016 C10,14.252107 10.1819419,14.0558506 10.4063786,14.0558506 Z" id="帽檐" fill="#C4DBF0"></path>
                <path d="M18.3549837,7.76797386 L18.3545098,9.16597386 L19.753268,9.16625817 L19.753268,10.0984477 L18.3545098,10.0979739 L18.3549837,11.496732 L17.4227941,11.496732 L17.4225098,10.0979739 L16.0245098,10.0984477 L16.0245098,9.16625817 L17.4225098,9.16597386 L17.4227941,7.76797386 L18.3549837,7.76797386 Z" id="十字" fill="#E58CA5"></path>
            </g>
            <path d="M11.9640007,34 C13.0469808,34 13.9280014,33.1352237 13.9280014,32.0725074 C13.9280014,31.1723511 13.2960536,30.4146172 12.4448017,30.2036225 C12.4473493,30.1845264 12.4491292,30.1651525 12.4491292,30.1454314 L12.4491292,28 C12.1483233,28.0761732 11.8494946,28.1598755 11.5529275,28.2510271 C11.5513749,28.3113355 11.5505838,28.3716608 11.5505544,28.4319889 L11.5505544,30.1454314 C11.5505544,30.1597014 11.551392,30.1738673 11.5527531,30.1878595 C10.6665674,30.3739251 10,31.1480817 10,32.0725421 C10,33.1352237 10.8809857,34 11.9640007,34 L11.9640007,34 Z" id="路径备份" fill="#87A2CA"></path>
            <path d="M11.9640007,31.0749957 C12.524371,31.0749957 12.9803938,31.5224698 12.9803938,32.0725074 C12.9803938,32.6224756 12.5244408,33.0699844 11.9640007,33.0699844 C11.4036304,33.0699844 10.9476076,32.6224408 10.9476076,32.0724727 C10.9476076,31.5225045 11.4035606,31.0749609 11.9640007,31.0749609 L11.9640007,31.0749957 Z" id="路径备份-2" fill="#FFFFFF" fill-rule="nonzero"></path>
            <path d="M26.3300358,32.359713 L26.3300358,32.9247034 C26.3300358,31.9000058 25.5819447,31.0440137 24.5939592,30.8539899 L24.5939592,28.2624501 C24.2808636,28.1666109 23.9652545,28.0790964 23.6474684,28 L23.6474684,30.8731208 C22.7036299,31.0959204 22,31.9308721 22,32.9247382 L22,33.359713 C22,33.595741 22.1955032,33.787709 22.4361305,33.787709 C22.6765834,33.787709 22.8722261,33.5957063 22.8722261,33.359713 L22.8722261,32.9247034 C22.8722261,32.2330768 23.4454741,31.6702969 24.1502208,31.6702969 L24.1798848,31.6702969 C24.8844221,31.6702969 25.4578446,32.2330768 25.4578446,32.9247382 L25.4578446,33.359713 C25.4578446,33.595741 25.6534524,33.787709 25.8939402,33.787709 C26.1343581,33.787709 26.3300358,33.5957063 26.3300358,33.359713 L26.3300358,32.359713 Z" id="路径备份-3" fill="#87A2CA"></path>
        </g>
    </g>
</svg>