<?xml version="1.0" standalone="no"?><!DOCTYPE svg PUBLIC "-//W3C//DTD SVG 1.1//EN" "http://www.w3.org/Graphics/SVG/1.1/DTD/svg11.dtd"><svg t="1704778464327" class="icon" viewBox="0 0 1024 1024" version="1.1" xmlns="http://www.w3.org/2000/svg" p-id="5172" xmlns:xlink="http://www.w3.org/1999/xlink" width="22" height="22"><path d="M196.536625 319.274736C101.448275 426.238488 66.886171 572.574095 95.702113 713.291231c0 2.809235 14.386689 53.460594 28.815941 90.065778 51.843156 118.200692 178.64181 242.062419 423.598592 216.694175 152.720232-14.046175 279.518886-109.730423 345.791294-239.210619 28.815941-61.930863 43.245194-132.289432 43.245194-199.838765-8.640526-287.052744-325.615879-379.927756-354.474384-565.677782-2.851799-11.279504-11.492325-16.897974-23.027215-14.08874C406.931303 60.356907 311.80039 248.916167 334.870168 471.271377c2.894363 16.85541 8.640526 67.549333-14.429253 75.977038-66.272408 22.516444-86.447824-45.032889-97.940148-90.065778-5.788727-25.325679-14.429253-90.065778-5.788727-135.098666 2.894363-11.23694-14.386689-11.23694-20.175415-2.809235" fill="#F7B500" p-id="5173"></path></svg>