<svg xmlns="http://www.w3.org/2000/svg" width="985.6" height="928.947" viewBox="0 0 985.6 928.947">
  <g transform="translate(-132 -128.5)">
    <path d="M1027,128.5H366.171C337.41,128.5,314,149.695,314,175.735V506.377s10.969,15.745,22.875,15.745c14.046,0,29.3-15.745,29.3-15.745V175.735H909.55L713.976,254.459c-25.684,12.6-34.781,37.3-34.781,47.235v708.519H366.171V679.57s-13.377-15.745-26.621-15.745c-12.842,0-25.55,15.745-25.55,15.745v330.642c0,26.161,23.41,47.235,52.171,47.235H1027c28.895,0,52.171-21.2,52.171-47.235V175.735C1079.172,149.695,1055.762,128.5,1027,128.5Zm0,881.712H731.367V301.693L1027,175.735Z" transform="translate(38.428)" fill="#6A6F8A"/>
    <path d="M273.7,622.763l-62.979-62.979H541.366s17.319.363,15.745-31.49c-.606-11.506-15.745-15.745-15.745-15.745H210.724L273.7,449.57s28.1-27.372,0-47.235c-15.139-10.779-31.49,0-31.49,0L132,528.294v15.745L242.214,670s14.413,12.232,30.763.848C302.166,650.135,273.7,622.763,273.7,622.763Z" transform="translate(0 56.807)" fill="#6A6F8A"/>
  </g>
</svg>
