<?xml version="1.0" encoding="UTF-8"?>
<svg width="24px" height="24px" viewBox="0 0 24 24" version="1.1" xmlns="http://www.w3.org/2000/svg" xmlns:xlink="http://www.w3.org/1999/xlink">
    <title>帮助</title>
    <g id="控件" stroke="none" stroke-width="1" fill="none" fill-rule="evenodd" opacity="0.8">
        <g id="导航栏" transform="translate(-1755.000000, -13.000000)">
            <g id="分组-7">
                <g id="帮助" transform="translate(1755.000000, 13.000000)">
                    <g id="分组">
                        <rect id="矩形" fill="#000000" opacity="0" x="0" y="0" width="24" height="24"></rect>
                        <path d="M20.6117452,5.97233475 C18.2219815,2.5548438 14.151845,0.995109305 10.287657,1.62744059 C8.78279728,1.87392148 7.30837294,2.45272104 5.9774433,3.38314622 C1.22914263,6.70405465 0.0680658516,13.2690516 3.38825477,18.0174482 C3.62746859,18.3597681 4.09826939,18.4443108 4.44111694,18.2038738 C4.78269335,17.9647799 4.86639661,17.4933795 4.62723075,17.1514193 C1.78446213,13.0859357 2.77837226,7.4652026 6.84416766,4.62202627 C10.907133,1.77966539 16.5291852,2.77259217 19.3727453,6.83833962 C22.2155139,10.9038472 21.2216037,16.5245564 17.1558084,19.3677567 C14.3831682,21.3057867 10.802324,21.5305383 7.80697087,19.9573249 C7.43771723,19.7619294 6.98101887,19.9054241 6.78636684,20.2745579 C6.5924823,20.6439314 6.73453798,21.1008696 7.10434327,21.295042 C10.6023956,23.134187 14.7857593,22.8711094 18.0225567,20.6066127 C22.7708574,17.2857283 23.9319341,10.7207314 20.6117452,5.97233475 Z M13.9164686,12.6811142 C14.8680954,11.8915215 15.337745,11.2662655 15.6275645,10.80525 C15.917408,10.3464891 16.063397,9.85818016 16.063397,9.34471228 C16.0611425,8.4181485 15.8175157,7.60334892 15.0255487,6.90513431 C14.2337015,6.2067758 13.3191296,5.85531809 11.9817004,5.85531809 C10.7082358,5.85531809 9.83242158,6.20219491 9.04973625,6.89364609 C8.64294806,7.25301844 8.33353383,7.65304322 8.12180538,8.09307288 C7.81838709,8.72372529 8.1630814,9.33284032 8.82443299,9.52691674 L8.96102039,9.55289114 C9.31964925,9.60625495 9.58754761,9.44287772 9.86374434,8.93571759 C10.010261,8.66666801 10.3590325,8.34015337 10.5986781,8.13749079 C10.9980553,7.7997278 11.491065,7.63078634 12.0844227,7.63078634 C12.6983105,7.63078634 13.1843889,7.79282048 13.5473349,8.11686478 C13.9078105,8.44105298 14.0904466,8.82891802 14.0904466,9.28312207 C14.0904466,9.60942084 13.9854698,9.90837816 13.7823275,10.179946 C13.6499373,10.351118 13.2437727,10.7140159 12.5636898,11.2663135 C11.8836069,11.8185631 11.4294268,12.3183602 11.203548,12.7588455 C10.9753427,13.2015614 10.905526,13.485265 10.9024081,14.1722313 C10.8994341,14.8257882 11.3991593,15.0067935 11.8739894,15.0067935 C12.5266589,15.0067935 12.8032394,14.6191443 12.8781406,14.1125597 C12.905554,13.9272854 12.9458946,13.7796175 12.9989946,13.6693642 C13.1177142,13.4205808 13.4212764,13.0919796 13.9164686,12.6811142 Z M12.0365512,15.8122873 L12.0365512,15.8122873 C11.3924919,15.8122873 10.8704139,16.3343893 10.8704139,16.9784486 C10.8704139,17.6770949 11.3559407,18.1447059 12.0365512,18.1447059 C12.6805866,18.1447059 13.2026886,17.6226039 13.2026886,16.9785685 L13.2026886,16.9784486 C13.2027126,16.3343893 12.6806105,15.8122873 12.0365512,15.8122873 Z" id="形状" fill="#FFFFFF" fill-rule="nonzero"></path>
                    </g>
                </g>
            </g>
        </g>
    </g>
</svg>