<?xml version="1.0" standalone="no"?><!DOCTYPE svg PUBLIC "-//W3C//DTD SVG 1.1//EN" "http://www.w3.org/Graphics/SVG/1.1/DTD/svg11.dtd"><svg t="1614042851469" class="icon" viewBox="0 0 1024 1024" version="1.1" xmlns="http://www.w3.org/2000/svg" p-id="1704" xmlns:xlink="http://www.w3.org/1999/xlink" width="200" height="200"><defs><style type="text/css"></style></defs><path d="M747.733333 807.893333H276.266667a27.904 27.904 0 0 1-27.776-25.642666L217.6 413.525333a27.989333 27.989333 0 0 1 13.781333-26.538666l266.538667-155.605334a27.818667 27.818667 0 0 1 28.074667 0l266.538666 155.605334c9.301333 5.461333 14.677333 15.786667 13.781334 26.538666l-30.848 368.725334a27.946667 27.946667 0 0 1-27.776 25.6z" fill="#ACE5FF" p-id="1705"></path><path d="M906.922667 306.730667l-359.338667-210.090667c-21.973333-12.8-49.194667-12.8-71.168 0L117.077333 306.730667c-23.594667 13.909333-37.12 40.064-34.944 67.328L123.733333 871.808c3.2 36.693333 33.706667 64.853333 70.528 65.152h635.562667a71.296 71.296 0 0 0 70.528-65.152l41.557333-497.749333a71.509333 71.509333 0 0 0-34.944-67.328z m-514.133334 563.626666v-268.245333c0-2.474667 1.962667-4.437333 4.394667-4.437333h224.554667c2.432 0 4.437333 2.005333 4.437333 4.437333v268.245333h-233.386667z m441.429334-4.096a4.48 4.48 0 0 1-4.437334 4.096H692.48v-268.245333c0.042667-39.125333-31.573333-70.954667-70.741333-71.082667H397.184a70.997333 70.997333 0 0 0-70.741333 71.082667v268.245333H194.218667a4.48 4.48 0 0 1-4.437334-4.096L148.224 368.512a4.48 4.48 0 0 1 2.218667-4.266667l359.338666-210.048a4.437333 4.437333 0 0 1 4.437334 0l359.338666 210.090667c1.493333 0.853333 2.346667 2.517333 2.218667 4.224l-41.557333 497.749333zM542.634667 240.213333h-66.346667v76.8H399.872v66.56h76.416v76.8h66.346667v-76.8h76.373333V317.013333h-76.373333v-76.8z" fill="#242F44" p-id="1706"></path></svg>