<?xml version="1.0" standalone="no"?><!DOCTYPE svg PUBLIC "-//W3C//DTD SVG 1.1//EN" "http://www.w3.org/Graphics/SVG/1.1/DTD/svg11.dtd"><svg t="1631695618903" class="icon" viewBox="0 0 1024 1024" version="1.1" xmlns="http://www.w3.org/2000/svg" p-id="1809" xmlns:xlink="http://www.w3.org/1999/xlink" ><defs><style type="text/css"></style></defs><path d="M811.895 596.271c-27.109-27.111-71.065-27.111-98.179 0L576 733.986V128c0-35.346-28.654-64-64-64-35.346 0-64 28.654-64 64v605.994L310.276 596.271c-27.109-27.111-71.065-27.111-98.179 0-27.109 27.111-27.109 71.069 0 98.181l245.451 245.45c14.919 14.92 34.939 21.611 54.448 20.109 19.509 1.502 39.531-5.188 54.453-20.109l245.446-245.45c27.114-27.112 27.114-71.07 0-98.181z" p-id="1810"  fill="currentColor" ></path></svg>