<?xml version="1.0" encoding="UTF-8"?>
<svg width="36px" height="36px" viewBox="0 0 36 36" version="1.1" xmlns="http://www.w3.org/2000/svg" xmlns:xlink="http://www.w3.org/1999/xlink">
    <title>男护士</title>
    <g id="Avatar-头像（数据展示）" stroke="none" stroke-width="1" fill="none" fill-rule="evenodd">
        <g id="男护士">
            <circle id="圆框" fill="#E6F3FE" cx="18" cy="18" r="18"></circle>
            <path d="M5.30957366,30.7653083 C5.21413567,30.6704267 5.11975569,30.574482 5.02645297,30.4774935 C6.90441449,29.638235 9.89723108,28.6225961 14.004902,27.4305761 L15.6231835,35.8393806 C11.6252907,35.3049584 8.04009464,33.4662749 5.30957366,30.7653083 L5.30957366,30.7653083 Z M30.8745676,30.5795788 C28.1524955,33.3650791 24.5338727,35.2706874 20.4852771,35.8298248 L22.2614379,27.4305761 C26.0147974,28.7067144 28.8858406,29.7563817 30.8745676,30.579578 L30.8745676,30.5795788 Z" id="衣领" fill="#FFFFFF"></path>
            <path d="M22.2614379,21.0830253 C22.1776592,23.9344099 22.1802557,26.019177 22.2692275,27.3373267 L22.2614379,27.3333333 L22.233902,27.4600253 L18.1331699,32.0195378 L14.027902,27.4560253 L14.0167528,27.393607 C14.1720318,26.131229 14.1766589,24.1768578 14.0306343,21.5304934 L14.004902,21.0830253 L22.2614379,21.0830253 Z" id="脖子" fill="#FDD1C1"></path>
            <path d="M22.2614379,27.4305761 L20.4837911,35.8373057 C19.6863909,35.9445986 18.8725411,36 18.0457516,36 C17.2242911,36 16.4156039,35.9453105 15.6231326,35.8393738 L14.004902,27.4305761 L18.1331699,32.0195378 L22.2614379,27.4305761 Z" id="内衬" fill="#9CC4FF"></path>
            <path d="M10.5689108,10.5342693 C10.2253946,12.0347356 10.2253946,14.0278618 10.4731018,15.0005021 C10.960519,14.9373224 11.3999519,15.2649505 11.7914005,15.9833866 C11.8132616,13.8911336 12.0290672,12.7599668 12.4388173,12.5898861 C13.0534425,12.3347651 14.5987444,12.1589843 15.7070502,12.5898861 C16.815356,13.0207879 17.615461,14.0278618 19.0489289,14.0278618 C19.9214487,14.0278618 21.4176447,13.6731795 22.5256385,13.3413954 C23.2379743,13.1280894 23.7898552,12.9242478 23.9123936,12.8302054 C23.9023655,13.4134627 23.9735442,14.3892748 24.1259295,15.7576419 C24.2354321,15.8675952 24.3381121,15.8675952 24.4339695,15.7576419 C24.5397769,15.6362753 25.2161829,15.7035985 25.4575163,15.7576419 C25.5441409,15.7770402 25.3424872,12.8861976 25.2829981,11.714596 C25.227666,10.6248653 24.96,9.72 24.48,9 C17.8864665,9.70615076 14.4797261,10.0592261 14.2597787,10.0592261 C13.9298575,10.0592261 10.9124271,9.03380292 10.5689108,10.5342693 Z" id="头发" fill="#79819B"></path>
            <path d="M10.1361666,16.2380335 C10.6831177,15.1442593 11.3342612,14.5567119 12.0722941,14.8636533 C12.810327,15.1705948 12.5253757,16.9513442 11.8024346,18.1899381 C11.0794934,19.428532 10.740824,19.9451123 10.0806588,19.9450296 C9.64054859,19.9449744 9.46237741,19.3598496 9.54614521,18.1896552 C9.57485877,17.6177569 9.77153257,16.9672163 10.1361666,16.2380335 Z" id="耳朵" fill="#FDD1C1" transform="translate(11.015281, 17.363804) scale(-1, 1) rotate(-7.000000) translate(-11.015281, -17.363804) "></path>
            <path d="M23.9740423,16.2380335 C24.5209934,15.1442593 25.1721369,14.5567119 25.9101698,14.8636533 C26.6482027,15.1705948 26.3632514,16.9513442 25.6403103,18.1899381 C24.9173691,19.428532 24.5786997,19.9451123 23.9185345,19.9450296 C23.4784243,19.9449744 23.3002531,19.3598496 23.3840209,18.1896552 C23.4127345,17.6177569 23.6094083,16.9672163 23.9740423,16.2380335 Z" id="耳朵" fill="#FDD1C1" transform="translate(24.853156, 17.363804) rotate(-7.000000) translate(-24.853156, -17.363804) "></path>
            <path d="M17.9981504,7.76057553 C21.5525551,7.76057553 24.4339695,10.6419899 24.4339695,14.1963947 L24.4339695,18.8323131 C24.4339695,22.492178 21.6430159,25.548077 17.9981504,25.879085 L17.9981504,25.879085 L17.9981504,25.879085 C14.3532848,25.548077 11.5623312,22.492178 11.5623312,18.8323131 L11.5623312,14.1963947 C11.5623312,10.6419899 14.4437456,7.76057553 17.9981504,7.76057553 Z" id="脸" fill="#FFE6D0"></path>
            <path d="M10.6570682,10.1642102 C10.4077306,10.6177572 10.7343237,12.6047289 11.0152807,12.4881082 C11.6299059,12.2329872 14.3066836,11.9636665 16.3718199,12.7153775 C18.4369562,13.4670886 21.2566837,13.6004451 22.042075,13.6004451 C22.8274664,13.6004451 23.8127903,13.215449 24.1259295,12.9751297 C24.1159014,13.5583869 24.1159014,14.574671 24.1259295,16.0239817 C24.3799874,15.7153878 24.5161614,15.474506 24.5344516,15.3013365 C25.2,9 24.84,10.08 24.48,9 C24.213971,8.20191313 21.5229812,5.96329793 16.2,6.84 C10.8770188,7.71670207 11.1711955,9.22900888 10.6570682,10.1642102 Z" id="头发" fill="#79819B"></path>
            <g id="编组-5" transform="translate(11.520000, 4.320000)">
                <path d="M0,1.08 C2.16,0.36 4.32,0 6.48,0 C8.64,0 10.8,0.36 12.96,1.08 L11.1085714,6.48 C9.56571429,6 8.02285714,5.76 6.48,5.76 C4.93714286,5.76 3.39428571,6 1.85142857,6.48 L0,1.08 Z" id="矩形备份" fill="#FFFFFF"></path>
                <rect id="矩形备份-2" fill="#98B6E2" x="4.32" y="2.34" width="4.32" height="1.08"></rect>
                <polygon id="矩形备份-3" fill="#98B6E2" transform="translate(6.480000, 2.880000) rotate(-270.000000) translate(-6.480000, -2.880000) " points="4.32 2.34 8.64 2.34 8.64 3.42 4.32 3.42"></polygon>
            </g>
        </g>
    </g>
</svg>