<?xml version="1.0" encoding="UTF-8"?>
<svg width="36px" height="36px" viewBox="0 0 36 36" version="1.1" xmlns="http://www.w3.org/2000/svg" xmlns:xlink="http://www.w3.org/1999/xlink">
    <title>男医生</title>
    <g id="Avatar-头像（数据展示）" stroke="none" stroke-width="1" fill="none" fill-rule="evenodd">
        <g id="男医生">
            <g>
                <circle id="圆框" fill="#E6F3FE" cx="18" cy="18" r="18"></circle>
                <path d="M5.30957366,30.7653083 C5.21413567,30.6704267 5.11975569,30.574482 5.02645297,30.4774935 C6.90441449,29.638235 9.89723108,28.6225961 14.004902,27.4305761 L15.6231835,35.8393806 C11.6252907,35.3049584 8.04009464,33.4662749 5.30957366,30.7653083 L5.30957366,30.7653083 Z M30.8745676,30.5795788 C28.1524955,33.3650791 24.5338727,35.2706874 20.4852771,35.8298248 L22.2614379,27.4305761 C26.0147974,28.7067144 28.8858406,29.7563817 30.8745676,30.579578 L30.8745676,30.5795788 Z" id="衣领" fill="#FFFFFF"></path>
                <path d="M22.2614379,21.0830253 C22.1776592,23.9344099 22.1802557,26.019177 22.2692275,27.3373267 L22.2614379,27.3333333 L22.233902,27.4600253 L18.1331699,32.0195378 L14.027902,27.4560253 L14.0167528,27.393607 C14.1720318,26.131229 14.1766589,24.1768578 14.0306343,21.5304934 L14.004902,21.0830253 L22.2614379,21.0830253 Z" id="脖子" fill="#FDD1C1"></path>
                <path d="M22.2614379,27.4305761 L20.4837911,35.8373057 C19.6863909,35.9445986 18.8725411,36 18.0457516,36 C17.2242911,36 16.4156039,35.9453105 15.6231326,35.8393738 L14.004902,27.4305761 L18.1331699,32.0195378 L22.2614379,27.4305761 Z" id="内衬" fill="#98B6E2"></path>
                <path d="M10.5689108,10.5342693 C10.2253946,12.0347356 10.2253946,14.0278618 10.4731018,15.0005021 C10.960519,14.9373224 11.3999519,15.2649505 11.7914005,15.9833866 C11.8132616,13.8911336 12.0290672,12.7599668 12.4388173,12.5898861 C13.0534425,12.3347651 14.5987444,12.1589843 15.7070502,12.5898861 C16.815356,13.0207879 17.615461,14.0278618 19.0489289,14.0278618 C19.9214487,14.0278618 21.4176447,13.6731795 22.5256385,13.3413954 C23.2379743,13.1280894 23.7898552,12.9242478 23.9123936,12.8302054 C23.9023655,13.4134627 23.9735442,14.3892748 24.1259295,15.7576419 C24.2354321,15.8675952 24.3381121,15.8675952 24.4339695,15.7576419 C24.5397769,15.6362753 25.2161829,15.7035985 25.4575163,15.7576419 C25.5441409,15.7770402 25.9525153,12.8503199 25.2829981,11.714596 C25.0710902,11.3551298 24.614222,11.461843 23.9123936,12.0347356 C17.6972644,10.7177293 14.4797261,10.0592261 14.2597787,10.0592261 C13.9298575,10.0592261 10.9124271,9.03380292 10.5689108,10.5342693 Z" id="头发" fill="#79819B"></path>
                <path d="M10.1361666,16.2380335 C10.6831177,15.1442593 11.3342612,14.5567119 12.0722941,14.8636533 C12.810327,15.1705948 12.5253757,16.9513442 11.8024346,18.1899381 C11.0794934,19.428532 10.740824,19.9451123 10.0806588,19.9450296 C9.64054859,19.9449744 9.46237741,19.3598496 9.54614521,18.1896552 C9.57485877,17.6177569 9.77153257,16.9672163 10.1361666,16.2380335 Z" id="耳朵" fill="#FDD1C1" transform="translate(11.015281, 17.363804) scale(-1, 1) rotate(-7.000000) translate(-11.015281, -17.363804) "></path>
                <path d="M23.9740423,16.2380335 C24.5209934,15.1442593 25.1721369,14.5567119 25.9101698,14.8636533 C26.6482027,15.1705948 26.3632514,16.9513442 25.6403103,18.1899381 C24.9173691,19.428532 24.5786997,19.9451123 23.9185345,19.9450296 C23.4784243,19.9449744 23.3002531,19.3598496 23.3840209,18.1896552 C23.4127345,17.6177569 23.6094083,16.9672163 23.9740423,16.2380335 Z" id="耳朵" fill="#FDD1C1" transform="translate(24.853156, 17.363804) rotate(-7.000000) translate(-24.853156, -17.363804) "></path>
                <path d="M17.9981504,7.76057553 C21.5525551,7.76057553 24.4339695,10.6419899 24.4339695,14.1963947 L24.4339695,18.8323131 C24.4339695,22.492178 21.6430159,25.548077 17.9981504,25.879085 L17.9981504,25.879085 L17.9981504,25.879085 C14.3532848,25.548077 11.5623312,22.492178 11.5623312,18.8323131 L11.5623312,14.1963947 C11.5623312,10.6419899 14.4437456,7.76057553 17.9981504,7.76057553 Z" id="脸" fill="#FFE6D0"></path>
                <path d="M10.6570682,10.1642102 C10.4077306,10.6177572 10.7343237,12.6047289 11.0152807,12.4881082 C11.6299059,12.2329872 14.3066836,11.9636665 16.3718199,12.7153775 C18.4369562,13.4670886 21.2566837,13.6004451 22.042075,13.6004451 C22.8274664,13.6004451 23.8127903,13.215449 24.1259295,12.9751297 C24.1159014,13.5583869 24.1159014,14.574671 24.1259295,16.0239817 C24.3982776,15.7158387 24.5344516,15.474957 24.5344516,15.3013365 C24.5344516,12.5483102 25.1058148,9.56434017 24.7532506,9.11010634 C24.1866315,8.38009029 21.6948011,6.27351126 16.3718199,7.15021333 C11.0488387,8.0269154 11.1711955,9.22900888 10.6570682,10.1642102 Z" id="头发" fill="#79819B"></path>
                <path d="M17.8888889,4.22222222 C21.909534,4.22222222 25.3223671,7.16987421 25.9073468,11.1477362 L26,11.7777778 L26,11.7777778 L9.77777778,11.7777778 L9.87043096,11.1477362 C10.4554107,7.16987421 13.8682438,4.22222222 17.8888889,4.22222222 Z" id="帽子" fill="#FFFFFF"></path>
                <path d="M9.95292163,11.6114061 L25.8556313,11.6114061 C26.0977259,11.6114061 26.2939824,11.8076626 26.2939824,12.0497572 C26.2939824,12.2918518 26.0977259,12.4881082 25.8556313,12.4881082 L9.95292163,12.4881082 C9.71082704,12.4881082 9.5145706,12.2918518 9.5145706,12.0497572 C9.5145706,11.8076626 9.71082704,11.6114061 9.95292163,11.6114061 Z" id="帽沿" fill="#C4DBF0"></path>
                <path d="M18.4660948,6.16993464 L18.4656209,7.56793464 L19.8643791,7.56821895 L19.8643791,8.5004085 L18.4656209,8.49993464 L18.4660948,9.89869281 L17.5339052,9.89869281 L17.5336209,8.49993464 L16.1356209,8.5004085 L16.1356209,7.56821895 L17.5336209,7.56793464 L17.5339052,6.16993464 L18.4660948,6.16993464 Z" id="十字" fill="#98B6E2"></path>
            </g>
            <path d="M11.9640007,34 C13.0469808,34 13.9280014,33.1352237 13.9280014,32.0725074 C13.9280014,31.1723511 13.2960536,30.4146172 12.4448017,30.2036225 C12.4473493,30.1845264 12.4491292,30.1651525 12.4491292,30.1454314 L12.4491292,28 C12.1483233,28.0761732 11.8494946,28.1598755 11.5529275,28.2510271 C11.5513749,28.3113355 11.5505838,28.3716608 11.5505544,28.4319889 L11.5505544,30.1454314 C11.5505544,30.1597014 11.551392,30.1738673 11.5527531,30.1878595 C10.6665674,30.3739251 10,31.1480817 10,32.0725421 C10,33.1352237 10.8809857,34 11.9640007,34 L11.9640007,34 Z" id="路径" fill="#87A2CA"></path>
            <path d="M11.9640007,31.0749957 C12.524371,31.0749957 12.9803938,31.5224698 12.9803938,32.0725074 C12.9803938,32.6224756 12.5244408,33.0699844 11.9640007,33.0699844 C11.4036304,33.0699844 10.9476076,32.6224408 10.9476076,32.0724727 C10.9476076,31.5225045 11.4035606,31.0749609 11.9640007,31.0749609 L11.9640007,31.0749957 Z" id="路径" fill="#FFFFFF" fill-rule="nonzero"></path>
            <path d="M26.3300358,32.359713 L26.3300358,32.9247034 C26.3300358,31.9000058 25.5819447,31.0440137 24.5939592,30.8539899 L24.5939592,28.2624501 C24.2808636,28.1666109 23.9652545,28.0790964 23.6474684,28 L23.6474684,30.8731208 C22.7036299,31.0959204 22,31.9308721 22,32.9247382 L22,33.359713 C22,33.595741 22.1955032,33.787709 22.4361305,33.787709 C22.6765834,33.787709 22.8722261,33.5957063 22.8722261,33.359713 L22.8722261,32.9247034 C22.8722261,32.2330768 23.4454741,31.6702969 24.1502208,31.6702969 L24.1798848,31.6702969 C24.8844221,31.6702969 25.4578446,32.2330768 25.4578446,32.9247382 L25.4578446,33.359713 C25.4578446,33.595741 25.6534524,33.787709 25.8939402,33.787709 C26.1343581,33.787709 26.3300358,33.5957063 26.3300358,33.359713 L26.3300358,32.359713 Z" id="路径" fill="#87A2CA"></path>
        </g>
    </g>
</svg>