<?xml version="1.0" standalone="no"?><!DOCTYPE svg PUBLIC "-//W3C//DTD SVG 1.1//EN" "http://www.w3.org/Graphics/SVG/1.1/DTD/svg11.dtd"><svg t="1698114429812" class="icon" viewBox="0 0 1024 1024" version="1.1" xmlns="http://www.w3.org/2000/svg" p-id="1439" width="20" height="20" xmlns:xlink="http://www.w3.org/1999/xlink"><path d="M512.000512 0.973164c-282.235013 0-511.026836 228.792846-511.026836 511.027859s228.792846 511.025812 511.026836 511.025812c282.237059 0 511.026836-228.7908 511.026836-511.025812S794.237571 0.973164 512.000512 0.973164zM230.144122 271.073812c15.307637 2.662643 29.283953 3.328815 58.567907 3.328815l67.884087 0c-9.982352-18.636452-18.634406-31.281447-36.603663-53.909817l39.266305-14.641465c28.618804 42.593074 28.618804 42.593074 42.595121 68.550259l52.578496 0c27.287483 0 39.266305-0.666172 55.239092-3.328815l0 44.591591c-17.969257-2.663666-29.948079-3.329838-55.905264-3.329838l-165.718299 0c-27.287483 0-39.932478 0.666172-57.902758 3.329838L230.145146 271.073812zM341.289502 408.841525l-34.608216 12.644995c-11.313673-37.271882-19.966751-57.903781-37.934984-89.182158l35.273365-13.31219C322.655096 352.272135 330.640977 372.235816 341.289502 408.841525zM216.833979 424.147116c15.306614 2.664689 28.617781 3.328815 55.240115 3.328815l119.130238 0c25.289989-43.26027 35.273365-68.552306 44.590568-109.147886l39.932478 12.644995c-15.307637 39.930431-30.615275 71.877027-45.25674 96.502891l39.267329 0c25.289989 0 38.601156-0.664126 53.908794-3.328815l0 44.590568c-15.97381-2.662643-29.283953-3.326768-53.908794-3.326768l-197.664895 0c-25.292036 0-39.267329 0.664126-55.240115 3.326768L216.832955 424.147116zM220.826919 755.587807c-3.326768-2.662643-7.985882-5.989411-19.965727-13.311167 39.933501-46.588061 56.570413-75.872015 77.868485-134.438898l37.934984 13.30912c-23.959691 62.561871-45.921889 101.831246-80.530105 145.755642C230.144122 762.90854 230.144122 762.90854 220.826919 755.587807zM393.866974 761.577219c0 35.93749-12.644995 45.255717-60.564377 45.255717-14.641465 0-31.280424-0.664126-41.928948-1.995447 0-2.662643 0-3.992941 0-5.990434 0-9.318226-3.326768-21.963221-8.652054-34.606169 23.959691 4.65809 35.274388 5.990434 50.581002 5.990434 16.638959 0 21.963221-3.328815 21.963221-13.978363l0-180.360787-82.526575 0c-25.957185 0-38.60218 0.664126-55.240115 3.992941l0-43.927465c15.307637 3.328815 29.28293 3.993964 55.905264 3.993964l81.861426 0 0-30.615275c0-8.652054-1.331321-19.298532-2.662643-27.28646l43.926442 0c-1.331321 7.987928-2.662643 18.634406-2.662643 27.28646l0 30.615275 73.209372 0c23.293519 0 35.938514-0.665149 53.242622-3.993964l0 43.26027c-15.307637-2.662643-28.618804-3.326768-53.242622-3.326768l-73.209372 0L393.866974 761.577219zM452.434881 605.841272c32.611745 43.26027 41.929971 57.901735 62.561871 99.165534l-35.94056 21.964244c-17.303085-45.25981-29.948079-68.551282-58.566884-105.824187L452.434881 605.841272zM823.140855 464.74679c-15.97381-2.664689-31.280424-3.328815-57.901735-3.328815l-24.62484 0 0 290.175869c0 33.275871 0.665149 49.913806 3.992941 66.554812l-51.247174 0c2.662643-17.305131 3.992941-33.94409 3.992941-66.554812l0-290.175869-103.823624 0c-0.666172 8.651031-0.666172 8.651031-0.666172 25.957185-0.665149 88.515986-14.641465 178.363294-37.269835 238.927671-13.311167 35.274388-27.287483 60.564377-49.915853 91.179652-13.976316-13.310144-21.297049-19.301602-37.270858-27.954679 29.284977-36.602639 48.585555-75.203796 61.894675-126.448924 14.642488-57.237609 21.298072-146.419767 21.298072-299.495118 0-43.259246-1.330298-74.53967-3.326768-91.178629 3.326768 0 6.65456 0 7.985882 0 35.939537 0 102.493326-13.31219 157.733441-30.615275 27.952632-9.31618 44.591591-16.638959 61.229526-28.618804l33.942043 37.270858c-6.65456 1.997494-6.65456 1.997494-24.62484 9.31618-54.573943 22.630417-105.154945 35.275411-191.009312 49.253774l0 113.806999 169.047114 0c29.948079 0 45.25674-1.331321 60.564377-3.993964L823.140855 464.74679z" p-id="1440"></path></svg>