<svg t="1716344459460" class="icon" viewBox="0 0 1167 1024" version="1.1" xmlns="http://www.w3.org/2000/svg" p-id="2643" width="200" height="200"><path d="M582.681794 1023.997877a507.248305 507.248305 0 0 1-222.165594-50.512499 17.545271 17.545271 0 0 1 15.198451-31.626189 472.493023 472.493023 0 0 0 206.855389 47.048146 477.521923 477.521923 0 0 0 477.07491-476.963156 17.545271 17.545271 0 0 1 35.090541 0 512.612464 512.612464 0 0 1-512.053697 512.053698zM88.173367 529.377697a17.433517 17.433517 0 0 1-17.433517-17.433518A512.500711 512.500711 0 0 1 582.681794 0.002235a506.913045 506.913045 0 0 1 225.7417 52.300552A17.433517 17.433517 0 0 1 793.448549 83.593716a472.38127 472.38127 0 0 0-210.766755-48.724446A477.633676 477.633676 0 0 0 105.606884 511.944179a17.433517 17.433517 0 0 1-17.433517 17.433518z" fill="#707070" p-id="2644"></path><path d="M299.945902 421.535746a17.210011 17.210011 0 0 1-15.980724-23.468197A312.909287 312.909287 0 0 1 573.965035 201.158205a17.210011 17.210011 0 1 1 0 34.420022 278.154005 278.154005 0 0 0-258.038408 175.005694 17.210011 17.210011 0 0 1-15.980725 10.951825zM600.115311 836.252305a15.980724 15.980724 0 0 1 0-31.961449A255.132822 255.132822 0 0 0 835.57955 648.171472a15.980724 15.980724 0 1 1 29.391122 12.404619 286.982517 286.982517 0 0 1-264.855361 175.676214zM237.811058 997.847601a75.321736 75.321736 0 0 1-16.092478-1.788054 73.868942 73.868942 0 0 1-46.824639-32.408461L11.734098 709.635797a74.651216 74.651216 0 0 1 22.350664-102.813052L889.221142 57.44344a74.651216 74.651216 0 0 1 102.813051 22.350663l163.159843 254.015289a74.539462 74.539462 0 0 1-22.350664 102.813052L277.818746 986.001749a73.757189 73.757189 0 0 1-40.007688 11.845852zM929.228829 80.01761a39.560674 39.560674 0 0 0-21.456637 6.369939L52.747566 635.655101a40.119441 40.119441 0 0 0-12.069359 55.876658l163.159843 254.015289a40.231194 40.231194 0 0 0 55.876658 12.069359l854.577614-549.826319a40.119441 40.119441 0 0 0 12.069358-55.876658L963.201837 98.345154a39.784181 39.784181 0 0 0-25.256249-17.433518 40.789961 40.789961 0 0 0-8.716759-0.894026zM597.880245 167.63221l-24.138717-10.393058a3.240846 3.240846 0 0 0-3.017339 0l-22.350664 13.969164a3.240846 3.240846 0 0 1-5.028899-3.129093l2.458573-26.150276a3.240846 3.240846 0 0 0-1.117533-2.793833L524.346562 122.930884a3.240846 3.240846 0 0 1 1.34104-5.69942l25.703263-5.811172a3.240846 3.240846 0 0 0 2.34682-2.01156l9.722538-24.473976a3.240846 3.240846 0 0 1 5.922926 0l13.410398 22.350663a3.240846 3.240846 0 0 0 2.570326 1.564547l26.26203 1.788053a3.240846 3.240846 0 0 1 2.235066 5.475912l-17.321764 19.780337a3.240846 3.240846 0 0 0-0.67052 3.01734l6.481692 25.479756a3.240846 3.240846 0 0 1-4.470132 3.240846zM986.446527 713.994176l-27.379562 4.246626a3.464353 3.464353 0 0 0-2.570327 1.899806l-11.957605 25.032743a3.464353 3.464353 0 0 1-6.258185 0l-12.628125-24.809236a3.464353 3.464353 0 0 0-2.68208-1.899806L895.591081 715.223462a3.464353 3.464353 0 0 1-2.01156-5.922925l19.55683-19.556831a3.464353 3.464353 0 0 0 1.00578-3.129093L909.001479 659.346804a3.464353 3.464353 0 0 1 5.028899-3.687859l24.697483 12.292864a3.464353 3.464353 0 0 0 3.240846 0l24.362223-13.186891a3.464353 3.464353 0 0 1 5.028899 3.576106l-4.358379 27.379563a3.464353 3.464353 0 0 0 1.00578 3.017339l20.115597 19.221571a3.464353 3.464353 0 0 1-1.6763 6.034679zM417.845651 213.339317l-26.709042 2.011559a3.3526 3.3526 0 0 0-2.68208 1.6763L374.373611 240.271866a3.3526 3.3526 0 0 1-6.034679 0L357.610614 214.79211a3.3526 3.3526 0 0 0-2.458573-2.01156l-26.485536-5.811172a3.3526 3.3526 0 0 1-1.452793-5.922926l20.786116-17.433517a3.3526 3.3526 0 0 0 1.229287-2.905587l-2.570326-26.932549a3.3526 3.3526 0 0 1 5.140652-3.240846l23.021183 14.304424a3.3526 3.3526 0 0 0 3.129093 0l24.809237-11.175331a3.3526 3.3526 0 0 1 4.693639 3.911366l-6.481692 26.262029a3.3526 3.3526 0 0 0 0.782273 3.01734l17.992284 20.339103a3.3526 3.3526 0 0 1-1.899807 6.146433zM289.44109 330.680299l-22.350663 16.986505a3.687859 3.687859 0 0 0-1.452793 3.017339v28.050083a3.576106 3.576106 0 0 1-5.475913 3.017339l-22.350663-16.092477a3.3526 3.3526 0 0 0-3.129093 0l-25.926769 9.946045a3.3526 3.3526 0 0 1-4.35838-4.35838l8.828512-26.932549a3.576106 3.576106 0 0 0 0-3.240846l-16.315984-22.350663a3.576106 3.576106 0 0 1 3.129093-5.811173h27.267809a3.576106 3.576106 0 0 0 2.793833-1.564546L245.857297 287.431766a3.3526 3.3526 0 0 1 6.034679 0.782273l8.046239 26.597289a3.3526 3.3526 0 0 0 2.235066 2.235067l26.150276 7.487472a3.576106 3.576106 0 0 1 1.117533 6.146432zM655.209696 860.502774l19.780337 18.551051a3.3526 3.3526 0 0 0 3.01734 0.782273l26.038523-5.699419a3.3526 3.3526 0 0 1 3.799612 4.805393l-11.175331 24.585729a3.3526 3.3526 0 0 0 0 3.129093l13.745658 23.356443a3.3526 3.3526 0 0 1-3.3526 5.0289l-26.932549-3.3526a3.3526 3.3526 0 0 0-2.905586 1.117533L659.344569 953.034521a3.3526 3.3526 0 0 1-5.922926-1.564547L648.169237 924.872685a3.3526 3.3526 0 0 0-2.011559-2.458573l-24.809237-11.175332a3.3526 3.3526 0 0 1 0-6.034679l23.691703-13.075138a3.3526 3.3526 0 0 0 1.788054-2.68208l2.682079-26.932549a3.3526 3.3526 0 0 1 5.699419-2.01156zM775.568018 823.95944l27.60307-5.36416a3.687859 3.687859 0 0 0 2.570326-2.011559l12.181111-25.368003a3.576106 3.576106 0 0 1 6.258186 0l12.516372 24.026963a3.3526 3.3526 0 0 0 2.682079 1.788053l27.60307 2.570326a3.3526 3.3526 0 0 1 2.011559 5.811173L849.325207 845.416076a3.576106 3.576106 0 0 0-1.005779 3.129093l4.917146 26.93255a3.576106 3.576106 0 0 1-5.0289 3.911366l-24.809236-11.175332a3.576106 3.576106 0 0 0-3.240846 0l-24.58573 14.080918a3.3526 3.3526 0 0 1-5.140652-3.352599l4.470132-27.379563a3.3526 3.3526 0 0 0-1.452793-3.3526l-20.115597-18.21579a3.576106 3.576106 0 0 1 2.235066-6.034679z" fill="#707070" p-id="2645"></path><path d="M326.543192 555.751479l13.075138-8.157992 15.533711 24.138717 60.458544-38.778401 7.934486 12.292865-60.458545 38.778401L382.978617 614.645477l69.845823-44.701326 7.934485 12.292864L402.31194 619.897883a189.980639 189.980639 0 0 0 99.236946 20.227351l-1.564547 16.986504a210.096236 210.096236 0 0 1-107.953704-30.620409l-1.452793 0.894026 51.518279 80.462389-13.075138 8.381498-51.518279-80.350634-1.564546 1.005779A187.857326 187.857326 0 0 1 357.610614 748.749457l-14.751438-7.152212a173.776408 173.776408 0 0 0 23.24469-98.789932l-58.335232 37.437361-7.934485-12.292865 69.845823-44.701326L349.899635 592.294814 290.558624 630.179188l-7.934486-12.292864 59.229258-37.996128zM443.884174 483.447083a300.951682 300.951682 0 0 1 48.277433 7.375719l-3.129093 15.198451a234.681965 234.681965 0 0 0-48.612693-8.605005zM651.074824 569.944151l-33.525995 20.674363a141.256192 141.256192 0 0 1-30.955669 15.421958 48.947953 48.947953 0 0 1-27.603069 0 11.957605 11.957605 0 0 0-10.057799 0q-6.705199 4.246626-5.475913 38.331388l-14.974944-2.34682a81.356415 81.356415 0 0 1 7.934486-43.583794l-33.525996-53.194578-25.368002 16.315984-8.157993-12.404618L506.689538 525.242824l42.466261 66.269717a42.019247 42.019247 0 0 1 7.040459 1.229286 59.005751 59.005751 0 0 0 21.56839 1.899807 91.749473 91.749473 0 0 0 27.491316-12.181112l36.431581-22.350663 23.691703-15.421958q13.186891-8.940265 18.104037-12.516371l5.140653 14.863191z m-142.150219-76.662776L547.591252 468.136879q-6.593446-13.410398-16.427737-29.502876l-6.928706-11.175331 12.739878-8.157992 5.252406 8.157992a342.523916 342.523916 0 0 1 18.104037 32.184955l43.695547-28.050083 7.934486 12.292865-40.342948 26.59729q30.061642 29.502876 91.525967 40.342947L660.462102 525.242824a199.591424 199.591424 0 0 1-88.732133-38.331388 130.751381 130.751381 0 0 1-1.00578 95.884346l-14.416178-5.475912q19.55683-42.131-2.235066-95.884346l-37.213855 23.803456zM631.07098 360.183175l12.516371-8.046239 21.344884 33.525995 20.450857-13.075138 7.822732 12.181112-20.450857 12.851631 8.940265 13.633905q20.786117 4.805393 44.701327 12.851631v15.421958q-22.350663-9.834292-36.208075-14.863191l56.658932 88.28512-12.516371 8.046239-56.658932-88.28512a243.398724 243.398724 0 0 1 7.822732 59.899777l-14.304424-10.281305a195.344798 195.344798 0 0 0-11.175332-76.551022l-21.121377 13.522152-7.822732-12.181112 21.456637-13.745658z m51.965292-19.109817l80.350635-51.518279L771.097886 301.73619l-80.350635 51.518279z m108.512471 140.920932l-10.057799-10.281305q11.734098-6.481692 16.539491-9.610785a7.934485 7.934485 0 0 0 2.235066-12.404618l-48.277432-75.321736-43.025027 27.938329-7.822733-12.181111 98.901686-63.364131 7.822732 12.181112-43.248534 27.714822 50.288993 78.227322a16.427738 16.427738 0 0 1-5.475913 25.59151z m-44.030807-80.238881a264.184841 264.184841 0 0 1 16.427737 79.568361H748.747222a232.893912 232.893912 0 0 0-14.304424-74.651215z m49.953733-36.990348a620.789675 620.789675 0 0 1 60.011531 51.630032L849.325207 428.799712a706.727975 706.727975 0 0 0-60.905557-52.971073z" fill="#707070" p-id="2646"></path></svg>