<svg xmlns="http://www.w3.org/2000/svg" width="172.67" height="165.479" viewBox="0 0 172.67 165.479">
  <path d="M43.938,165.479a13.073,13.073,0,0,1-13.073-13.037V89.982H10.46A10.411,10.411,0,0,1,3.524,71.764l75.9-69.145a10.484,10.484,0,0,1,13.865,0l75.893,69.145a10.433,10.433,0,0,1-6.935,18.218H144.669v7.209H134.25V88.975a9.407,9.407,0,0,1,9.4-9.382l18.627-.079L86.375,10.391,10.445,79.542c-.022,0,0,.058.014.079l21.426-.029a9.4,9.4,0,0,1,9.4,9.382v63.468a2.655,2.655,0,0,0,2.648,2.648h95.529v10.39Zm76.884-15.632V133.6H59.657a7.213,7.213,0,0,1,0-14.425h61.165V102.922a2.885,2.885,0,0,1,4.472-2.395l35.2,23.47a2.884,2.884,0,0,1,0,4.789l-35.2,23.47h.013a2.971,2.971,0,0,1-1.6.476A2.885,2.885,0,0,1,120.822,149.847ZM80.335,91.74v-18.5h-18.5v-12h18.5v-18.5h12v18.5h18.5v12h-18.5v18.5Z" fill="#6a6f8a"/>
</svg>
