<svg xmlns="http://www.w3.org/2000/svg" width="24" height="24" viewBox="0 0 24 24">
  <g id="password" transform="translate(-106 -147)">
    <path id="password-2" data-name="password" d="M119.708,10.876H108.039V8.3a5.594,5.594,0,0,1,8.936-4.485,5.642,5.642,0,0,1,2,2.814.458.458,0,1,0,.875-.273A6.51,6.51,0,0,0,107.123,8.3v2.578h-.143a1.721,1.721,0,0,0-1.719,1.718V20.35a1.721,1.721,0,0,0,1.719,1.719h12.729a1.721,1.721,0,0,0,1.719-1.719V12.594A1.721,1.721,0,0,0,119.708,10.876Zm.8,9.474a.8.8,0,0,1-.8.8H106.98a.8.8,0,0,1-.8-.8V12.594a.8.8,0,0,1,.8-.8h12.729a.8.8,0,0,1,.8.8Z" transform="translate(4.656 147.071)" fill="currentColor" opacity="0.7"/>
    <rect id="矩形_3" data-name="矩形 3" width="24" height="24" transform="translate(106 147)" fill="none"/>
  </g>
</svg>
