<?xml version="1.0" standalone="no"?><!DOCTYPE svg PUBLIC "-//W3C//DTD SVG 1.1//EN" "http://www.w3.org/Graphics/SVG/1.1/DTD/svg11.dtd"><svg t="1615360665179" class="icon" viewBox="0 0 1024 1024" version="1.1" xmlns="http://www.w3.org/2000/svg" p-id="7058" xmlns:xlink="http://www.w3.org/1999/xlink" width="200" height="200"><defs><style type="text/css"></style></defs><path d="M643.712 465.472a241.344 241.344 0 0 0 111.552-203.392C755.264 128.576 646.4 20.16 512 20.16c-133.952 0-243.264 108.416-243.264 241.92a241.92 241.92 0 0 0 111.552 203.392 410.624 410.624 0 0 0-276.864 387.968c0 18.368 15.232 33.6 33.6 33.6a33.856 33.856 0 0 0 33.6-33.6C170.624 664.384 323.84 510.72 512 510.72c188.16 0 341.376 153.664 341.376 342.72 0 18.368 15.232 33.6 33.6 33.6a33.856 33.856 0 0 0 33.6-33.6 410.624 410.624 0 0 0-276.864-387.968zM512 436.8c-97.216 0-176.064-78.4-176.064-174.72S414.784 87.36 512 87.36s176.064 78.4 176.064 174.72S609.216 436.8 512 436.8z" fill="#000622" fill-opacity=".6" p-id="7059"></path><path d="M636.096 614.656l-151.872 150.976-65.856-65.408a33.792 33.792 0 0 0-47.488 0 33.792 33.792 0 0 0 0 47.488l113.344 112.896 199.36-198.464a33.792 33.792 0 0 0 0-47.488 33.792 33.792 0 0 0-47.488 0z" fill="#0F49ED" p-id="7060"></path></svg>