<svg xmlns="http://www.w3.org/2000/svg" xmlns:xlink="http://www.w3.org/1999/xlink" width="1024" height="1024" viewBox="0 0 1024 1024">
  <defs>
    <clipPath id="clip-path">
      <path id="路径_3" data-name="路径 3" d="M512,512,0,512c0,282.77,229.23,512,512,512s512-229.23,512-512S794.77,0,512,0,0,229.23,0,512Z" transform="translate(-1876 -302)" fill="#dceaff"/>
    </clipPath>
  </defs>
  <g id="portraitNo" transform="translate(1876 302)">
    <g id="portraitMale" transform="translate(-1876 -302)">
      <path id="路径_3-2" data-name="路径 3" d="M512,512,0,512c0,282.77,229.23,512,512,512s512-229.23,512-512S794.77,0,512,0,0,229.23,0,512Z" fill="#dceaff"/>
    </g>
    <g id="蒙版组_1" data-name="蒙版组 1" clip-path="url(#clip-path)">
      <path id="随机用户" d="M854.853,719.344q4.586,13.759,6.88,35.315a411.582,411.582,0,0,1,2.293,43.57,251.226,251.226,0,0,1-3.21,41.277q-3.211,19.263-9.631,29.352Q846.6,875.28,825.959,881.7a500.678,500.678,0,0,1-50.908,12.383q-30.27,5.962-67.878,10.549t-75.216,8.255q-37.608,3.669-72.923,5.5t-61.916,1.835q-26.6,0-61.457-2.293t-72.005-5.5q-37.149-3.21-73.381-7.338t-66.5-8.714q-30.27-4.586-50.908-9.173t-26.142-9.173q-9.173-7.338-14.218-44.946t3.21-97.23q5.5-33.939,27.518-51.367T214.6,656.512q29.353-10.549,61-18.8t56.412-23.849q19.263-11.925,29.353-22.932t14.676-22.014a59.049,59.049,0,0,0,4.586-22.932q0-11.924-.917-26.6-1.834-21.1-14.676-33.48t-27.518-25.225q-7.338-6.421-13.3-17.887a228.358,228.358,0,0,1-10.549-23.39q-4.586-13.759-9.173-29.353a43.9,43.9,0,0,1-16.511-5.5,64.2,64.2,0,0,1-14.676-13.3q-7.338-8.714-11.924-24.308T259.088,318.5a64.516,64.516,0,0,1,7.8-22.014,74.525,74.525,0,0,1,15.594-19.263,665.476,665.476,0,0,1,3.669-69.712,450.269,450.269,0,0,1,12.842-62.833A184.6,184.6,0,0,1,327.425,84.6q17.428-25.683,38.525-41.736A191.034,191.034,0,0,1,454.007,5.253a298.557,298.557,0,0,1,43.112-3.21A212.988,212.988,0,0,1,548.027,8a222.924,222.924,0,0,1,44.946,16.052,211.763,211.763,0,0,1,37.149,22.932,188.581,188.581,0,0,1,27.518,25.683,208.1,208.1,0,0,1,34.4,65.126,421.661,421.661,0,0,1,16.052,66.96,491.73,491.73,0,0,1,3.669,73.381,43.183,43.183,0,0,1,13.759,11.924,69.114,69.114,0,0,1,8.255,16.511q3.669,10.09,1.835,24.766-1.835,20.18-9.173,31.187a73.29,73.29,0,0,1-15.594,17.428,60.849,60.849,0,0,1-21.1,10.09q-4.586,15.593-9.173,29.353a228.346,228.346,0,0,1-10.549,23.39q-5.962,11.466-13.3,17.887-16.511,13.759-27.518,23.39t-14.676,32.563a122.112,122.112,0,0,0-2.293,27.977,70.084,70.084,0,0,0,7.338,28.435q6.879,14.218,21.1,27.059t39.9,22.932a400.184,400.184,0,0,0,49.074,16.511q27.06,7.338,52.284,16.969a195.9,195.9,0,0,1,44.946,23.849q19.721,14.218,27.977,38.984ZM499.871,519.38a38.82,38.82,0,0,0,28.435-11.924Q540.23,495.531,540.23,478.1T528.306,448.75a38.82,38.82,0,0,0-28.435-11.924q-17.428,0-29.353,11.924T458.594,478.1q0,17.428,11.924,29.353T499.871,519.38ZM533.81,353.355q-.917-11.007,12.842-23.39t31.187-27.059a222.7,222.7,0,0,0,32.1-33.48,77.535,77.535,0,0,0,16.511-42.653,158.352,158.352,0,0,0-5.5-48.615,96.518,96.518,0,0,0-22.014-39.9q-15.593-16.969-39.9-26.6t-57.329-9.631q-40.36,0-67.878,14.676T389.8,151.556q-16.511,20.18-22.932,42.653t-6.421,37.149q.917,17.428,11.007,25.225a38.28,38.28,0,0,0,22.473,8.255,35,35,0,0,0,22.473-6.88q10.09-7.338,10.09-20.18,0-8.255,5.045-19.721a103.4,103.4,0,0,1,13.759-22.473,76.144,76.144,0,0,1,21.1-18.345A52.119,52.119,0,0,1,493.45,169.9q30.27,0,48.156,15.135T558.576,223.1q0,17.428-14.218,30.728t-31.187,27.059a321.052,321.052,0,0,0-31.646,29.353,55.49,55.49,0,0,0-15.593,36.691V371.7q.917,10.09,10.09,19.263t24.766,10.09q15.594-.917,24.307-10.09a30.832,30.832,0,0,0,8.714-22.014V353.355Z" transform="translate(-1861.309 -158.155)" fill="#fff"/>
    </g>
  </g>
</svg>
