<svg t="1716280535124" class="icon" viewBox="0 0 1159 1024" version="1.1" xmlns="http://www.w3.org/2000/svg" p-id="1665" width="200" height="200"><path d="M37.500322 629.070255a17.394948 17.394948 0 0 0-7.08683 21.260492l153.977502 269.943822a16.750691 16.750691 0 0 0 21.260492 7.086831l916.778185-530.223785a17.394948 17.394948 0 0 0 7.086831-21.260492l-155.266017-269.299565a16.750691 16.750691 0 0 0-21.260492-7.086831L37.500322 629.070255z m1095.237466-203.585317L225.623464 950.554664a49.607815 49.607815 0 0 1-69.579792-19.971977L6.57597 667.725695a49.607815 49.607815 0 0 1 20.616235-68.935535l908.40284-523.136954a49.607815 49.607815 0 0 1 68.291277 19.971977l150.111958 263.501249a50.896329 50.896329 0 0 1-19.971977 64.425734zM323.550578 959.574267a15.462176 15.462176 0 0 1 0-26.414551 17.394948 17.394948 0 0 1 14.817919 0 480.61597 480.61597 0 0 0 713.837125-409.747664 15.140047 15.140047 0 0 1 30.280095 0 510.896065 510.896065 0 0 1-758.935139 436.162215" fill="#67C23A" p-id="1666"></path><path d="M574.166681 935.092488l-32.212867 15.462176 6.442573-32.212867-25.770293-23.193264 35.434153-5.154058 16.106434-28.99158 16.106433 28.99158 35.434153 5.154058-25.770293 21.90475 6.442573 32.212866z m189.411656-57.98316l-34.789896-7.731088 28.347322-19.32772v-31.568609l30.280095 17.394948 34.145639-12.24089-10.308118 30.924352 23.837522 24.481779h-36.722668l-19.32772 26.414551z m-175.237995-87.618997a11.596632 11.596632 0 0 1 7.086831 0 270.58808 270.58808 0 0 0 119.187606-37.366926 275.742139 275.742139 0 0 0 90.196027-87.618997l5.154059-4.509801a14.817919 14.817919 0 0 1 19.971977 5.154059 15.462176 15.462176 0 0 1 0 16.75069 299.57966 299.57966 0 0 1-231.93264 137.871069 15.462176 15.462176 0 0 1-13.529404-16.75069 15.462176 15.462176 0 0 1 7.086831-12.24089z m322.128667-54.117616l-30.924352 10.308117 12.240889-34.145638-17.394948-30.280095h31.568609l19.32772-28.347323 7.731088 34.789896 29.635838 12.24089-26.414551 19.327719v36.722668zM58.116557 508.594134A515.405866 515.405866 0 0 1 823.494269 64.700831a15.462176 15.462176 0 0 1 0 26.414551 17.394948 17.394948 0 0 1-15.462176 0A485.125772 485.125772 0 0 0 88.396652 508.594134a15.462176 15.462176 0 0 1-7.731088 12.885146h-7.086831a15.462176 15.462176 0 0 1-15.462176-12.885146z" fill="#67C23A" p-id="1667"></path><path d="M319.685034 351.395344a298.935403 298.935403 0 0 1 231.288383-137.226812 14.817919 14.817919 0 0 1 16.106433 14.173662 15.462176 15.462176 0 0 1-7.731088 14.173661 12.240889 12.240889 0 0 1-6.442573 0 269.943823 269.943823 0 0 0-118.543349 37.366925 275.097881 275.097881 0 0 0-90.196027 86.97474l-5.154059 4.509802a14.173661 14.173661 0 0 1-19.971977-5.154059 15.462176 15.462176 0 0 1 0-16.750691z m-84.39771 0l-30.924352 9.66386 12.240889-33.501381-18.039205-30.280095h31.568609l19.971977-28.347322 7.731088 34.789896 27.058808 16.106433-26.41455 19.32772v36.722668z m114.033548-164.929877l-34.789896-7.731088 28.347322-19.971977v-31.56861l30.280095 18.039206 33.501381-12.24089-9.66386 30.924352 22.549007 22.549007h-36.722668l-19.32772 26.414551z m222.913037-29.635837l-29.635838 12.885146 6.442574-31.568609-25.770294-22.549007 35.434154-4.509801 16.106433-29.635837 16.106433 29.635837 35.434154 4.509801-25.770294 22.549007 6.442574 31.568609zM315.81949 508.594134l52.829102 24.481778-19.32772 32.857124q-19.971977-12.240889-52.184844-28.99158z m179.103539 136.582554q51.540587-27.058808 109.523746-64.425733c0 12.240889 3.865544 24.481779 6.442574 36.078411q-64.425733 34.789896-115.322063 64.425733a85.041968 85.041968 0 0 1-64.425733 7.086831l-10.308117 44.453755-31.56861-25.126035c0-7.086831 5.798316-19.32772 11.596632-37.366926l-32.212866-54.761873-19.32772 12.240889-18.683463-28.99158 51.540587-25.770293 48.3193 86.330483a88.263255 88.263255 0 0 0 64.425733-14.173662zM373.80265 535.652942l52.184844-27.058808c-6.442573-12.885147-14.173661-28.347323-23.837521-45.742271l30.924352-18.683463q14.173661 25.126036 24.481779 45.098014l64.425733-36.722668 14.817918 27.058808-64.425733 37.366925c0 5.798316 4.509801 11.596632 6.442574 16.750691l99.859886 18.683462-8.375345 38.65544Q526.491638 580.106698 484.614912 573.019867a222.26878 222.26878 0 0 1-18.039206 79.887909 313.753321 313.753321 0 0 0-37.366925-15.462176 141.736613 141.736613 0 0 0 16.750691-79.243652 113.389291 113.389291 0 0 0-7.731088-26.41455l-50.252072 27.703065z m206.806604-9.019603a282.828969 282.828969 0 0 0-7.731088-73.445336l-23.837521 12.885147-16.106434-28.99158 25.126036-14.173662-21.260492-38.65544 27.058808-14.817918 21.260492 38.65544 21.90475-12.24089 16.106433 28.99158-21.260492 11.596632 14.173661 25.126036h35.434154v32.212867h-18.683463l52.184844 92.773056-27.058808 14.817919-50.896329-92.773056a340.167872 340.167872 0 0 1 3.221286 52.184844z m19.971977-162.997105l124.341666-69.579792 16.106433 28.347322-124.341665 70.22405z m21.90475 59.915932l141.092356-78.599395 16.106433 28.347323-55.406131 30.924352 52.184844 94.06157a27.703065 27.703065 0 0 1 3.865544 21.90475 32.857124 32.857124 0 0 1-14.817918 17.394948l-32.857124 19.32772-23.193264-27.058808 21.260492-10.308118a12.240889 12.240889 0 0 0 5.154058-19.32772l-43.809498-78.599394-55.406131 30.924352z m41.232469 32.857124l30.280095-7.086831a751.848308 751.848308 0 0 1 13.529404 88.907512 173.305223 173.305223 0 0 0-31.56861 3.865544 579.8316 579.8316 0 0 0-12.240889-85.686225z m101.148401-54.117616q32.212867 25.126036 64.425734 54.761873l-21.260492 25.126036q-34.145639-31.568609-64.425734-56.050388z" fill="#67C23A" p-id="1668"></path></svg>