<?xml version="1.0" standalone="no"?><!DOCTYPE svg PUBLIC "-//W3C//DTD SVG 1.1//EN" "http://www.w3.org/Graphics/SVG/1.1/DTD/svg11.dtd"><svg t="1616034953800" class="icon" viewBox="0 0 1024 1024" version="1.1" xmlns="http://www.w3.org/2000/svg" p-id="2561" xmlns:xlink="http://www.w3.org/1999/xlink" width="200" height="200"><defs><style type="text/css"></style></defs><path d="M868.032 392.96h-79.36V252.928C789.376 101.312 665.024 0 512.128 0c-152.96 0-277.632 102.656-277.632 254.272V392.96h-79.36A68.288 68.288 0 0 0 87.424 460.928v495.04A68.288 68.288 0 0 0 155.968 1024h712.064a68.288 68.288 0 0 0 68.48-68.032V460.928a68.288 68.288 0 0 0-68.48-67.968z m-317.504 328.32v108.224a8.96 8.96 0 0 1-9.024 8.96h-59.008a8.96 8.96 0 0 1-8.96-8.96v-108.16a84.416 84.416 0 0 1-46.848-74.88 85.44 85.44 0 0 1 170.624 0 83.84 83.84 0 0 1-46.784 74.88z m132.288-326.528H341.12v-151.04c0-79.36 76.8-144.768 170.944-144.768 94.208 0 170.88 65.088 170.88 144.768l-0.192 151.04z" fill="#F7594B" p-id="2562"></path></svg>