<svg width="24" height="24"><path d="M17.6 10H12c-2.8 0-4.4 1.4-4.9 3.5-.4 2 .3 4 1.4 4.6a1 1 0 11-1 1.8c-2-1.2-2.9-4.1-2.3-6.8.6-3 3-5.1 6.8-5.1h5.6l-3.3-3.3a1 1 0 111.4-1.4l5 5a1 1 0 010 1.4l-5 5a1 1 0 01-1.4-1.4l3.3-3.3z" fill-rule="nonzero"/></svg>',
    'reload': '<svg width="24" height="24"><g fill-rule="nonzero"><path d="M5 22.1l-1.2-4.7v-.2a1 1 0 011-1l5 .4a1 1 0 11-.2 2l-2.2-.2a7.8 7.8 0 008.4.2 7.5 7.5 0 003.5-6.4 1 1 0 112 0 9.5 9.5 0 01-4.5 8 9.9 9.9 0 01-10.2 0l.4 1.4a1 1 0 11-2 .5zM13.6 7.4c0-.5.5-1 1-.9l2.8.2a8 8 0 00-9.5-1 7.5 7.5 0 00-3.6 7 1 1 0 01-2 0 9.5 9.5 0 014.5-8.6 10 10 0 0110.9.3l-.3-1a1 1 0 012-.5l1.1 4.8a1 1 0 01-1 1.2l-5-.4a1 1 0 01-.9-1z"/></g></svg>