<?xml version="1.0" standalone="no"?><!DOCTYPE svg PUBLIC "-//W3C//DTD SVG 1.1//EN" "http://www.w3.org/Graphics/SVG/1.1/DTD/svg11.dtd"><svg t="1615792273149" class="icon" viewBox="0 0 1024 1024" version="1.1" xmlns="http://www.w3.org/2000/svg" p-id="2530" xmlns:xlink="http://www.w3.org/1999/xlink" width="200" height="200"><defs><style type="text/css"></style></defs><path d="M947.2 721.92c-25.6-15.36-56.32-5.12-71.68 20.48-61.44 107.52-204.8 179.2-363.52 179.2-148.48 0-276.48-61.44-348.16-153.6H256c25.6 0 51.2-25.6 51.2-51.2s-25.6-51.2-51.2-51.2H51.2c-25.6 0-51.2 25.6-51.2 51.2v204.8c0 25.6 25.6 51.2 51.2 51.2s51.2-25.6 51.2-51.2v-66.56C194.56 957.44 348.16 1024 512 1024c194.56 0 373.76-92.16 455.68-230.4 10.24-25.6 5.12-56.32-20.48-71.68zM972.8 40.96c-25.6 0-51.2 25.6-51.2 51.2v76.8C829.44 66.56 675.84 0 512 0 312.32 0 138.24 92.16 56.32 230.4c-15.36 25.6-5.12 56.32 20.48 71.68 5.12 5.12 15.36 5.12 25.6 5.12 15.36 0 35.84-10.24 46.08-25.6C204.8 174.08 348.16 102.4 512 102.4c143.36 0 271.36 56.32 343.04 143.36H768c-25.6 0-51.2 25.6-51.2 51.2s25.6 51.2 51.2 51.2h204.8c25.6 0 51.2-25.6 51.2-51.2v-204.8c0-25.6-25.6-51.2-51.2-51.2z" fill="#65697A" p-id="2531"></path></svg>