<svg t="1642145253755" class="icon" viewBox="0 0 1024 1024" version="1.1" xmlns="http://www.w3.org/2000/svg" p-id="2306" width="24" height="24"><path d="M694.857143 146.285714v146.285715a73.142857 73.142857 0 0 1-73.142857 73.142857h-256a73.142857 73.142857 0 0 1-73.142857-73.142857V146.285714H146.285714v731.428572h658.285715V512a73.142857 73.142857 0 0 0-73.142858-73.142857H292.571429a73.142857 73.142857 0 0 0-73.142858 73.142857v365.714286h73.142858V512h438.857142v365.714286h146.285715V292.571429l-146.285715-146.285715h-36.571428zM146.285714 73.142857h621.714286l182.857143 182.857143v621.714286a73.142857 73.142857 0 0 1-73.142857 73.142857H146.285714a73.142857 73.142857 0 0 1-73.142857-73.142857V146.285714a73.142857 73.142857 0 0 1 73.142857-73.142857z m219.428572 219.428572h256V146.285714h-256v146.285715z m0 292.571428h219.428571v73.142857h-219.428571v-73.142857z m0 146.285714h292.571428v73.142858h-292.571428v-73.142858z" p-id="2307"></path></svg>