<?xml version="1.0" standalone="no"?><!DOCTYPE svg PUBLIC "-//W3C//DTD SVG 1.1//EN" "http://www.w3.org/Graphics/SVG/1.1/DTD/svg11.dtd"><svg t="1702517302280" class="icon" viewBox="0 0 1024 1024" version="1.1" xmlns="http://www.w3.org/2000/svg" p-id="15201" width="22" height="22" xmlns:xlink="http://www.w3.org/1999/xlink"><path d="M806.034286 119.954286h-53.638096V48.761905c0-10.727619-8.777143-19.504762-19.504761-19.504762s-19.504762 8.777143-19.504762 19.504762v71.68h-414.476191V48.761905c0-10.727619-8.777143-19.504762-19.504762-19.504762s-19.504762 8.777143-19.504762 19.504762v71.68h-41.935238c-104.838095 0-190.171429 85.820952-190.171428 190.171428V804.571429c0 104.838095 85.820952 190.171429 190.171428 190.171428h588.556191c104.838095 0 190.171429-85.820952 190.171428-190.171428V310.613333c0-104.838095-85.820952-190.659048-190.659047-190.659047z m-588.068572 39.009524h41.935238v68.266666c0 10.727619 8.777143 19.504762 19.504762 19.504762s19.504762-8.777143 19.504762-19.504762v-68.266666h414.476191v68.266666c0 10.727619 8.777143 19.504762 19.504762 19.504762s19.504762-8.777143 19.504761-19.504762v-68.266666h53.638096c83.382857 0 151.161905 67.779048 151.161904 151.161904v71.192381H66.31619V310.613333c0-83.382857 68.266667-151.649524 151.649524-151.649523zM806.034286 955.733333H217.965714c-83.382857 0-151.161905-67.779048-151.161904-151.161904V420.815238h890.88V804.571429c0 83.382857-68.266667 151.161905-151.649524 151.161904z" p-id="15202" fill="#ffffff"></path><path d="M723.626667 508.586667l-292.571429 248.685714-117.51619-129.706667c-7.314286-7.801905-19.504762-8.777143-27.794286-1.462857-7.801905 7.314286-8.777143 19.504762-1.462857 27.306667L414.47619 797.257143c3.900952 4.388571 9.264762 6.339048 14.628572 6.339047 4.388571 0 8.777143-1.462857 12.678095-4.87619l307.2-260.87619c8.289524-6.826667 9.264762-19.504762 2.438095-27.306667-7.314286-8.289524-19.504762-9.264762-27.794285-1.950476z" p-id="15203" fill="#ffffff"></path></svg>