<svg id="图层_1" data-name="图层 1" xmlns="http://www.w3.org/2000/svg" viewBox="0 0 20 20"><defs></defs><path class="cls-1" d="M10,0A10,10,0,1,0,20,10,10,10,0,0,0,10,0ZM6.26,3.9H11a15.62,15.62,0,0,0-.74-1.4L11.37,2a20.64,20.64,0,0,1,1,1.87h4.82v1H6.26Zm2.41,5v.42H7.56V5.84h7.92V9.35h-1.1V8.93ZM5,17.6H3.89V8.52a20.59,20.59,0,0,1-1.54,2.59c-.16-.46-.33-.89-.5-1.3A24.77,24.77,0,0,0,5.06,2.19l1.16.28A37.63,37.63,0,0,1,5,6.15Zm10.76-4.31H12.63v2.28c0,1.22-.56,1.83-1.7,1.84-.5,0-1.16,0-2,0-.06-.38-.15-.79-.25-1.23a18.63,18.63,0,0,0,1.89.11c.61,0,.91-.35.91-1v-2H7.42v-1h8.3Zm.51-.87V11H7v1.46H5.85V10H17.33v2.47ZM14.38,6.78H8.67V8h5.71Z"/></svg>