<?xml version="1.0" standalone="no"?><!DOCTYPE svg PUBLIC "-//W3C//DTD SVG 1.1//EN" "http://www.w3.org/Graphics/SVG/1.1/DTD/svg11.dtd"><svg class="icon" width="200px" height="200.00px" viewBox="0 0 1024 1024" version="1.1" xmlns="http://www.w3.org/2000/svg"><path d="M120.576 280.3712h44.288v590.848H120.576v-590.848z"  /><path d="M121.6 827.1872h775.936v44.288H121.6v-44.288z m87.552-116.736l229.12-229.12 70.912 70.912-229.12 229.12-70.912-70.912z m251.392-66.048l253.952-253.952 70.912 70.912-253.952 253.952-70.912-70.912z"  /><path d="M366.848 552.2432l70.912-70.912 162.816 162.816-70.912 70.912-162.816-162.816z m477.184-48.128v-162.816c0-4.096-3.072-7.424-7.168-7.424h-163.072c-4.352 0-7.68 3.584-7.424 7.936 0 1.792 0.768 3.584 2.048 4.864l162.816 162.816c3.072 2.816 7.68 2.816 10.752 0 1.28-1.536 2.048-3.328 2.048-5.376z"  /></svg>