<?xml version="1.0" standalone="no"?><!DOCTYPE svg PUBLIC "-//W3C//DTD SVG 1.1//EN" "http://www.w3.org/Graphics/SVG/1.1/DTD/svg11.dtd"><svg t="1659949730211" class="icon" viewBox="0 0 1024 1024" version="1.1" xmlns="http://www.w3.org/2000/svg" p-id="7938" xmlns:xlink="http://www.w3.org/1999/xlink" width="200" height="200"><defs><style type="text/css">@font-face { font-family: feedback-iconfont; src: url("//at.alicdn.com/t/font_1031158_u69w8yhxdu.woff2?t=1630033759944") format("woff2"), url("//at.alicdn.com/t/font_1031158_u69w8yhxdu.woff?t=1630033759944") format("woff"), url("//at.alicdn.com/t/font_1031158_u69w8yhxdu.ttf?t=1630033759944") format("truetype"); }
</style></defs><path d="M782.677333 352.426667l125.610667-125.44-48.298667-48.298667-132.608 132.437333c-27.306667-16.554667-57.002667-29.525333-88.576-38.058666l152.917334-152.917334-48.298667-48.298666L554.666667 260.608c-2.730667 0-5.461333-0.341333-8.362667-0.341333-2.901333 0-5.632 0.341333-8.362667 0.341333L349.184 71.850667l-48.298667 48.298666L453.802667 273.066667c-31.573333 8.704-61.269333 21.504-88.576 38.229333l-132.437334-132.437333-48.298666 48.298666 125.610666 125.610667c-70.144 64.170667-114.688 156.330667-114.688 258.730667 0 193.536 157.525333 350.890667 350.890667 350.890666s350.890667-157.525333 350.890667-350.890666c0.170667-102.741333-44.373333-194.730667-114.517334-259.072zM546.304 893.952c-155.818667 0-282.624-126.805333-282.624-282.624s126.805333-282.624 282.624-282.624 282.624 126.805333 282.624 282.624-126.805333 282.624-282.624 282.624z" p-id="7939"></path></svg>