<?xml version="1.0" encoding="UTF-8"?>
<svg width="24px" height="24px" viewBox="0 0 24 24" version="1.1" xmlns="http://www.w3.org/2000/svg" xmlns:xlink="http://www.w3.org/1999/xlink">
    <title>icon_注销</title>
    <g id="控件" stroke="none" stroke-width="1" fill="none" fill-rule="evenodd">
        <g id="导航栏" transform="translate(-1871.000000, -13.000000)">
            <g id="分组-7">
                <g id="icon_注销" transform="translate(1871.000000, 13.000000)">
                    <rect id="矩形" fill="#000000" opacity="0" x="0" y="-1.0658141e-14" width="24" height="24"></rect>
                    <path d="M11.5,12 C11.1943421,11.9734747 10.9669364,11.7059385 10.99,11.4 L10.99,1.6 C10.9590961,1.39912118 11.0489895,1.19881261 11.219606,1.08837101 C11.3902226,0.977929421 11.6097774,0.977929421 11.780394,1.08837101 C11.9510105,1.19881261 12.0409039,1.39912118 12.01,1.6 L12.01,11.4 C12.0330636,11.7059385 11.8056579,11.9734747 11.5,12 L11.5,12 L11.5,12 Z M11.5,12 L15.99,2.986 C15.7552558,2.97228865 15.5330133,3.09276847 15.4163947,3.296957 C15.2997761,3.50114552 15.308922,3.7537786 15.44,3.949 L15.44,3.949 C18.8343066,5.7519743 20.571957,9.62872341 19.6592247,13.3622142 C18.7464924,17.095705 15.4162231,19.7334918 11.5729295,19.7670787 C7.72963593,19.8006655 4.35377522,17.221484 3.37593274,13.5045151 C2.39809026,9.78754621 4.06772205,5.88102061 7.43,4.019 L7.43,4.019 C7.74,3.088 6.95,3.055 6.9,3.054 C3.10497845,5.15979834 1.22111701,9.57100528 2.32419566,13.768599 C3.42727431,17.9661926 7.23641734,20.8813444 11.5764118,20.8493555 C15.9164063,20.8173665 19.6821641,17.8463821 20.7232476,13.6329844 C21.764331,9.41958665 19.8156501,5.03662838 15.99,2.987 L15.99,2.987 L11.5,12 Z" fill="#FFFFFF" opacity="0.7"></path>
                </g>
            </g>
        </g>
    </g>
</svg>