<?xml version="1.0" standalone="no"?><!DOCTYPE svg PUBLIC "-//W3C//DTD SVG 1.1//EN" "http://www.w3.org/Graphics/SVG/1.1/DTD/svg11.dtd"><svg t="1612767161846" class="icon" viewBox="0 0 1024 1024" version="1.1" xmlns="http://www.w3.org/2000/svg" p-id="3587" xmlns:xlink="http://www.w3.org/1999/xlink" width="200" height="200"><defs><style type="text/css"></style></defs><path d="M2.276 512a509.724 509.724 0 1 0 1019.448 0A509.724 509.724 0 1 0 2.276 512z" fill="#619CF1" p-id="3588"></path><path d="M512 1021.724c147.143 0 279.723-62.35 372.764-162.068-0.246-2.371-1.105-4.511-2.648-6.386-14.05-17.08-74.807-61.345-134.917-90.657-76.257-37.193-147.037-44.943-147.037-44.943l-105.788 303.748c5.851 0.197 11.725 0.306 17.626 0.306z" fill="#FFFFFF" p-id="3589"></path><path d="M512 1021.724c2.789 0 5.572-0.03 8.35-0.075L417.131 710.695s-70.781 7.75-147.038 44.942c-60.11 29.312-120.867 73.577-134.917 90.657-1.473 1.79-2.315 3.826-2.604 6.071 93.319 103.959 228.733 169.36 379.428 169.36z" fill="#FFFFFF" p-id="3590"></path><path d="M429.36 661.952h154.898v107.063H429.36z" fill="#F6CAA9" p-id="3591"></path><path d="M710.49 441.327c0 126.065-90.514 228.26-202.168 228.26-111.66 0-202.173-102.195-202.173-228.26s90.513-228.261 202.173-228.261c111.654 0 202.168 102.196 202.168 228.26" fill="#F6CAA9" p-id="3592"></path><path d="M430.807 691.357s-17.368-3.891-13.233 22.12c4.552 28.616 90.147 269.564 90.147 269.564l90.56-258.09s8.268-34.412-12.717-31.646l-77.843 66.877-76.914-68.825z" fill="#88DDD1" p-id="3593"></path><path d="M539.044 893.937s-17.161-77.426-17.781-80.499c-0.62-3.073 5.584-11.678 5.584-16.592s-4.345-7.987-9.925-14.133c-5.584-6.147-9.925-18.23-9.925-18.23v0.586c-0.516 1.4-4.603 12.208-9.822 17.95-5.584 6.146-9.925 9.22-9.925 14.133 0 4.919 6.204 13.52 5.584 16.592-0.619 3.073-16.129 78.04-16.129 78.04l31.634 91.872-0.62-0.614 31.325-89.105z" fill="#3BAE9E" p-id="3594"></path><path d="M331.704 454.707c0 18.847-13.904 34.129-31.061 34.129-17.152 0-31.057-15.282-31.057-34.129s13.905-34.129 31.057-34.129c17.157 0 31.061 15.282 31.061 34.13m414.929-0.42c0 18.847-13.905 34.128-31.062 34.128-17.152 0-31.057-15.281-31.057-34.129s13.905-34.128 31.057-34.128c17.157 0 31.062 15.281 31.062 34.128" fill="#F6CAA9" p-id="3595"></path><path d="M621.264 287.473s56.473 25.738 18.072 44.757c-35.013 10.07-107.3 3.356-141.182-1.12-33.882-4.473-128.192-35.803-128.192-35.803l2.825 22.939s71.376 25.686 131.012 34.124c59.297 8.39 125.372 16.788 153.608-4.473 24.848-15.667 18.071-42.52 18.071-42.52s31.057-3.357 34.445-10.07l-10.165-19.024c0.002 0-11.856 6.713-78.494 11.19" fill="#ECB485" p-id="3596"></path><path d="M634.44 197.399s93.368-41.773-22.59-61.168c-115.953-19.396-236.425 41.772-265.042 104.432 0 0-51.197-8.95-61.742 98.468 0 65.645 10.545 82.056 10.545 82.056s16.184-4.477 15.058 38.044c0 0 12.422 14.542 18.067-1.12 0 0 3.388-29.095-1.127-38.045 0 0 49.696-26.853 45.177-121.964 0 0 53.084 25.738 134.405 34.688 81.315 8.95 128.754 1.12 128.754 1.12s0 51.47 45.177 83.922l-2.258 36.923s1.127 7.834 9.034 7.834 9.039-12.311 9.039-12.311-1.131-26.853 16.94-30.21c0 0 21.46-80.564-5.65-143.225 0 0 37.275-14.547 21.46-49.234-15.808-34.686-95.246-30.21-95.246-30.21" fill="#4A4A4A" p-id="3597"></path><path d="M429.773 652.131s29.358 15.156 71.954 15.156c50.034 2.05 82.7-14.746 82.7-14.746v15.156s-54.999 29.498-79.809 29.498-75.257-34.822-75.257-34.822l0.412-10.242z" fill="#ECB485" p-id="3598"></path><path d="M722.08 906.414h-36.63c-4.79 0-8.687-3.844-8.687-8.57 0-4.72 3.898-8.565 8.687-8.565h19.26v-31.533c0-4.724 3.898-8.57 8.687-8.57s8.682 3.844 8.682 8.57v48.668z m-80.436-0.001H605.01v-48.664c0-4.729 3.898-8.574 8.687-8.574s8.682 3.844 8.682 8.574v31.529h19.265c4.789 0 8.682 3.845 8.682 8.57 0 4.72-3.892 8.565-8.682 8.565z" fill="#88DDD1" p-id="3599"></path><path d="M714.73 295.474l-2.586-8.617-3.914-10.014s-20.328 6.153-86.966 10.63c0 0 56.473 25.738 18.072 44.757a83.6 83.6 0 0 1-3.606 0.943c0.893 6.525 2.298 15.406 4.179 23.128 6.774-2.046 12.694-4.787 17.498-8.404 24.848-15.667 18.071-42.52 18.071-42.52s35.863-3.189 39.251-9.903z" fill="#272727" p-id="3600"></path><path d="M352.355 893.508c31.032 0 56.277-24.907 56.277-55.515 0-25.926-18.108-47.75-42.5-53.827 0.073-0.55 0.124-1.108 0.124-1.676v-61.792a529.444 529.444 0 0 0-25.68 7.23 207.469 207.469 0 0 0-0.068 5.212v49.35c0 0.411 0.024 0.819 0.063 1.222-25.393 5.359-44.493 27.656-44.493 54.282 0 30.607 25.244 55.514 56.277 55.514z m0-84.245c16.057 0 29.124 12.888 29.124 28.73 0 15.84-13.065 28.729-29.124 28.729-16.057 0-29.124-12.89-29.124-28.73s13.065-28.73 29.124-28.73z m373.537 43.468v-12.529c0-29.513-21.436-54.167-49.746-59.64v-45.839a527.918 527.918 0 0 0-27.121-7.559v53.949c-27.045 6.417-47.207 30.465-47.207 59.09v12.528c0 6.798 5.602 12.327 12.497 12.327 6.89 0 12.496-5.53 12.496-12.327v-12.529c0-19.92 16.426-36.129 36.62-36.129h0.85c20.188 0 36.619 16.209 36.619 36.13v12.528c0 6.798 5.605 12.327 12.496 12.327 6.889 0.001 12.496-5.53 12.496-12.327z" fill="#3BAE9E" p-id="3601"></path></svg>