<?xml version="1.0" standalone="no"?><!DOCTYPE svg PUBLIC "-//W3C//DTD SVG 1.1//EN" "http://www.w3.org/Graphics/SVG/1.1/DTD/svg11.dtd"><svg t="1615792305231" class="icon" viewBox="0 0 1295 1024" version="1.1" xmlns="http://www.w3.org/2000/svg" p-id="2655" xmlns:xlink="http://www.w3.org/1999/xlink" width="252.9296875" height="200"><defs><style type="text/css"></style></defs><path d="M1255.448675 450.066506c-14.804819 0-29.609639 11.843855-29.609639 28.129157v75.504578h-636.607229V393.808193c0-29.609639-11.843855-57.738795-31.09012-79.946024-20.726747-20.726747-47.375422-32.570602-75.504579-32.570603H59.219277V28.129157C59.219277 13.324337 44.414458 0 29.609639 0S0 13.324337 0 28.129157v954.910843c0 14.804819 14.804819 28.129157 29.609639 28.129157s29.609639-11.843855 29.609638-28.129157V846.835663h744.68241c14.804819 0 26.648675-16.285301 26.648674-31.090121s-11.843855-31.09012-26.648674-31.09012H59.219277V618.841446h1166.619759V784.655422H963.793735c-14.804819 0-26.648675 16.285301-26.648675 31.09012s11.843855 31.09012 26.648675 31.090121h262.045301V984.520482c0 14.804819 14.804819 28.129157 29.609639 28.129157s29.609639-11.843855 29.609638-28.129157V478.195663c1.480482-14.804819-14.804819-28.129157-29.609638-28.129157z m-719.514217 106.594699H59.219277V343.471807H481.156627c14.804819 0 28.129157 5.921928 38.49253 16.285301 10.363373 10.363373 16.285301 23.687711 16.285301 38.492531v158.411566z" fill="#EDF0F3" p-id="2656"></path></svg>