<?xml version="1.0" standalone="no"?><!DOCTYPE svg PUBLIC "-//W3C//DTD SVG 1.1//EN" "http://www.w3.org/Graphics/SVG/1.1/DTD/svg11.dtd"><svg t="1615792251848" class="icon" viewBox="0 0 1024 1024" version="1.1" xmlns="http://www.w3.org/2000/svg" p-id="3125" xmlns:xlink="http://www.w3.org/1999/xlink" width="200" height="200"><defs><style type="text/css"></style></defs><path d="M947.2 70.4H76.8c-30.464 0-57.6 27.136-57.6 57.6v716.8l0.448 6.976c3.776 27.52 28.992 50.624 57.152 50.624l96-0.064V960c0 7.232 0.832 13.248 3.712 19.52a32.896 32.896 0 0 0 48.384 14.336l5.44-4.352A40.96 40.96 0 0 0 241.984 960v-57.664h540.672l0.128 60.672 0.64 5.888c3.072 16.896 9.792 29.504 33.536 29.504a33.6 33.6 0 0 0 32.768-24.64l0.832-3.2A45.184 45.184 0 0 0 851.2 960v-57.664l96 0.064c30.464 0 57.6-27.136 57.6-57.6V128c0-30.464-27.136-57.6-57.6-57.6z m-6.4 63.936v704H83.2v-704h857.6z" fill="#F7594B" p-id="3126"></path><path d="M367.936 330.304a32 32 0 0 1 60.032-1.344l97.92 247.168 8.192 20.288 28.096-107.52a32 32 0 0 1 25.6-23.424l5.312-0.448h272.448a32 32 0 0 1 5.76 63.488l-5.76 0.512-247.744-0.064-43.136 169.28v3.2c-0.256 2.368-1.28 4.992-4.928 14.08l-11.456 9.088c-10.752 7.936-14.272 6.912-30.272 2.432l-9.6-7.68a14.848 14.848 0 0 1-2.176-2.176l-4.672-8.576-7.36-16.64c-6.144-14.272-15.232-36.48-27.328-66.368L400.384 433.472l-38.016 111.68a32 32 0 0 1-24.576 21.12l-5.76 0.576H180.608a32 32 0 0 1-5.76-63.488l5.76-0.512 128.512-0.064 58.816-172.48z" fill="#F7594B" p-id="3127"></path></svg>