<?xml version="1.0" encoding="UTF-8"?>
<svg width="28px" height="28px" viewBox="0 0 28 28" version="1.1" xmlns="http://www.w3.org/2000/svg" xmlns:xlink="http://www.w3.org/1999/xlink">
    <title>编组</title>
    <g id="控件" stroke="none" stroke-width="1" fill="none" fill-rule="evenodd">
        <g id="导航栏备份-2" transform="translate(-29.000000, -12.000000)" fill="#FEFEFE">
            <g id="编组" transform="translate(29.000000, 12.000000)">
                <path d="M26.362146,11.0899563 L23.7608557,8.48866601 L23.7608557,18.7917628 L26.3395653,16.2130531 C27.7594363,14.7931821 27.7693718,12.4971821 26.362146,11.0899563 L26.362146,11.0899563 Z M1.05104922,16.320537 L3.66950083,18.9389886 L3.66950083,8.60156923 L1.07272664,11.1974402 C-0.348950783,12.6200208 -0.358886267,14.9133112 1.05104922,16.320537 L1.05104922,16.320537 Z M23.7436944,8.47060149 L21.1685976,5.89640794 L13.9274363,5.89640794 L13.9274363,3.54079504 L18.8129847,3.54079504 L16.3209847,1.05150472 C14.9119524,-0.360237217 12.6186621,-0.347592056 11.1987912,1.07227891 L8.73027502,3.54079504 L11.3216299,3.54079504 L11.3216299,18.7718918 L8.77724276,18.7718918 L8.77724276,6.03460149 L6.23556535,6.03460149 L3.77246857,8.49860149 L6.2129847,8.49860149 L6.2129847,21.292795 L13.8705331,21.292795 L13.8705331,23.6493112 L8.37892018,23.6493112 L11.0904041,26.360795 C12.4976299,27.7707305 14.7909202,27.760795 16.2135008,26.3382144 L18.9033073,23.6493112 L16.4040815,23.6493112 L16.4040815,16.1200208 L13.8750492,16.1200208 L13.8750492,13.5756338 L16.4040815,13.5756338 L16.4040815,13.5666015 L18.9484686,13.5666015 L18.9484686,23.6041499 L21.482017,21.0706015 L21.482017,11.0149886 L13.8804686,11.0149886 L13.8804686,8.47060149 L23.7436944,8.47060149 Z" id="Fill-1"></path>
            </g>
        </g>
    </g>
</svg>