<?xml version="1.0" encoding="UTF-8"?>
<svg width="24px" height="24px" viewBox="0 0 24 24" version="1.1" xmlns="http://www.w3.org/2000/svg" xmlns:xlink="http://www.w3.org/1999/xlink">
    <title>模块配置</title>
    <g id="控件" stroke="none" stroke-width="1" fill="none" fill-rule="evenodd">
        <g id="导航栏" transform="translate(-1454.000000, -14.000000)">
            <g id="模块配置" transform="translate(1454.000000, 14.000000)">
                <rect id="矩形" fill="#000000" opacity="0" x="0" y="0" width="24" height="24"></rect>
                <rect id="矩形" fill="#FFFFFF" x="2" y="2" width="9" height="9" rx="2"></rect>
                <rect id="矩形备份-3" fill="#FFFFFF" x="2" y="13" width="9" height="9" rx="2"></rect>
                <path d="M19,2 C20.1045695,2 21,2.8954305 21,4 L21,8 C21,9.1045695 20.1045695,10 19,10 L15,10 C13.8954305,10 13,9.1045695 13,8 L13,4 C13,2.8954305 13.8954305,2 15,2 L19,2 Z M19,3 L15,3 C14.4871642,3 14.0644928,3.38604019 14.0067277,3.88337887 L14,4 L14,8 C14,8.51283584 14.3860402,8.93550716 14.8833789,8.99327227 L15,9 L19,9 C19.5128358,9 19.9355072,8.61395981 19.9932723,8.11662113 L20,8 L20,4 C20,3.48716416 19.6139598,3.06449284 19.1166211,3.00672773 L19,3 Z" id="矩形备份" fill="#FFFFFF" fill-rule="nonzero" transform="translate(17.000000, 6.000000) rotate(-315.000000) translate(-17.000000, -6.000000) "></path>
                <rect id="矩形备份-2" fill="#FFFFFF" x="13" y="13" width="8" height="9" rx="2"></rect>
            </g>
        </g>
    </g>
</svg>