<?xml version="1.0" standalone="no"?><!DOCTYPE svg PUBLIC "-//W3C//DTD SVG 1.1//EN" "http://www.w3.org/Graphics/SVG/1.1/DTD/svg11.dtd"><svg t="1618022892627" class="icon" viewBox="0 0 1024 1024" version="1.1" xmlns="http://www.w3.org/2000/svg" p-id="2622" xmlns:xlink="http://www.w3.org/1999/xlink" width="200" height="200"><defs><style type="text/css"></style></defs><path d="M42.666667 256C42.666667 138.24 138.353778 42.666667 256 42.666667c117.76 0 213.333333 95.687111 213.333333 213.333333v128.113778c0 47.047111-38.4 85.219556-85.219555 85.219555H256A213.447111 213.447111 0 0 1 42.666667 256z m341.333333 0c0-70.542222-57.400889-128-128-128A128.113778 128.113778 0 0 0 128 256c0 70.542222 57.400889 128 128 128h128V256z m-341.333333 512c0-117.76 95.687111-213.333333 213.333333-213.333333h128.113778c47.047111 0 85.219556 38.4 85.219555 85.219555V768c0 117.76-95.687111 213.333333-213.333333 213.333333A213.447111 213.447111 0 0 1 42.666667 768z m213.333333-128a128.113778 128.113778 0 0 0-128 128c0 70.542222 57.400889 128 128 128 70.542222 0 128-57.400889 128-128v-128H256zM554.666667 256c0-117.76 95.630222-213.333333 213.333333-213.333333 117.76 0 213.333333 95.687111 213.333333 213.333333 0 117.76-95.630222 213.333333-213.333333 213.333333h-128.113778A85.390222 85.390222 0 0 1 554.666667 384.113778V256z m213.333333 128c70.542222 0 128-57.400889 128-128 0-70.542222-57.400889-128-128-128a128.113778 128.113778 0 0 0-128 128v128h128z m0 256a128 128 0 1 1-128 128v-157.468444a42.666667 42.666667 0 0 0-85.333333 0V768a213.333333 213.333333 0 1 0 213.333333-213.333333 42.666667 42.666667 0 0 0 0 85.333333z" fill="#41485A" p-id="2623"></path></svg>