<?xml version="1.0" encoding="UTF-8"?>
<svg width="24px" height="24px" viewBox="0 0 24 24" version="1.1" xmlns="http://www.w3.org/2000/svg" xmlns:xlink="http://www.w3.org/1999/xlink">
    <title>通知</title>
    <g id="控件" stroke="none" stroke-width="1" fill="none" fill-rule="evenodd" opacity="0.8">
        <g id="导航栏" transform="translate(-1798.000000, -13.000000)">
            <g id="分组-7">
                <g id="通知" transform="translate(1798.000000, 13.000000)">
                    <rect id="矩形" fill="#000000" opacity="0" x="0" y="0" width="24" height="24"></rect>
                    <path d="M11.2995,1.575 C11.2995,1.275 11.5995,0.975 11.8995,0.975 C12.1995,0.975 12.4995,1.275 12.4995,1.575 L12.4995,3.861 C15.402,4.2105 17.8995,7.0455 17.8995,10.275 L17.8995,13.875 C17.8995,14.325 18.0495,14.775 18.1995,15.075 L19.6995,17.475 C19.9995,17.925 19.9995,18.375 19.6995,18.825 C19.3995,19.275 18.9495,19.575 18.4995,19.575 L14.8755,19.575 C14.8905,19.6245 14.8995,19.674 14.8995,19.725 C14.8995,21.525 13.5495,23.025 11.8995,23.025 C10.2495,23.025 8.8995,21.525 8.8995,19.875 C8.90185588,19.7678273 8.93519894,19.6636302 8.9955,19.575 L5.4495,19.575 C4.9995,19.575 4.5495,19.275 4.2495,18.825 C3.9495,18.375 4.0995,17.925 4.2495,17.475 L5.7495,15.075 C6.0495,14.625 6.1995,14.175 6.0495,13.725 L6.0495,10.275 C6.0495,8.025 7.2495,6.075 9.0495,4.875 C9.3495,4.725 9.6495,4.725 9.9495,5.025 C10.2495,5.325 10.0995,5.625 9.7995,5.925 C8.2995,6.825 7.2495,8.475 7.2495,10.275 L7.3995,13.725 C7.3995,14.475 7.2495,15.075 6.7995,15.825 L5.2995,18.225 L5.2995,18.375 L5.4495,18.525 L18.4995,18.525 C18.4995,18.525 18.6495,18.525 18.6495,18.375 L18.6495,18.225 L17.1495,15.825 C16.8495,15.075 16.5495,14.475 16.5495,13.725 L16.5495,10.275 C16.5495,7.425 14.4495,5.025 11.7495,5.025 C11.5995,5.025 11.2995,4.725 11.2995,4.425 L11.2995,1.575 L11.2995,1.575 Z M13.7235,19.575 L10.071,19.575 C10.089,19.62 10.0995,19.6695 10.0995,19.725 C10.0995,20.775 10.8495,21.675 11.8995,21.675 C12.9495,21.675 13.6995,20.775 13.6995,19.725 C13.6995,19.674 13.707,19.6245 13.7235,19.575 Z" id="形状" fill="#FFFFFF" fill-rule="nonzero"></path>
                </g>
            </g>
        </g>
    </g>
</svg>