<?xml version="1.0" standalone="no"?><!DOCTYPE svg PUBLIC "-//W3C//DTD SVG 1.1//EN" "http://www.w3.org/Graphics/SVG/1.1/DTD/svg11.dtd"><svg t="1614066876056" class="icon" viewBox="0 0 1024 1024" version="1.1" xmlns="http://www.w3.org/2000/svg" p-id="1285" xmlns:xlink="http://www.w3.org/1999/xlink" width="200" height="200"><defs><style type="text/css"></style></defs><path d="M349.610667 348.970667s-10.837333 36.992-19.541334 78.378666l227.242667-107.434666 115.498667 83.541333c-6.613333-28.202667-13.013333-52.906667-13.013334-52.906667s20.693333-51.114667 29.098667-69.12a92.458667 92.458667 0 0 0-20.736-40.362666 161.066667 161.066667 0 0 0-67.498667-48.085334c-95.914667-37.290667-203.306667-8.746667-237.653333 19.328-48.64 34.346667-43.562667 72.96-43.562667 72.96l30.165334 63.701334z m267.733333 348.629333H406.656a187.306667 187.306667 0 0 0-186.88 187.776 33.28 33.28 0 0 0 33.237333 33.408h517.973334a33.28 33.28 0 0 0 33.237333-33.408 187.306667 187.306667 0 0 0-186.88-187.776z" fill="#B7E8FF" p-id="1286"></path><path d="M481.408 288.426667h61.184v-35.584h35.413333V191.274667h-35.413333V155.733333h-61.184v35.584h-35.413333v61.568h35.413333v35.584z m254.464 340.821333c47.445333-32.298667 50.816-77.098667 45.866667-116.906667-4.949333-39.850667-27.050667-128.853333-34.688-158.890666a2721.706667 2721.706667 0 0 1 35.072-83.2l4.010666-8.533334-1.493333-9.301333c-4.266667-27.306667-21.205333-52.906667-34.645333-69.546667a250.112 250.112 0 0 0-104.533334-74.752c-136.96-53.333333-294.741333-16-352.597333 30.421334-63.402667 45.226667-74.624 101.589333-71.210667 127.829333l0.64 4.864 38.186667 80.554667c-9.642667 34.474667-37.034667 137.898667-39.04 204.117333-1.152 38.528 21.12 64.768 51.797333 82.176a267.776 267.776 0 0 0-150.357333 240.725333 63.146667 63.146667 0 0 0 62.890667 63.274667h652.458666a63.146667 63.146667 0 0 0 62.890667-63.274667c0-107.605333-69.845333-205.44-165.248-249.557333z m-322.517333-15.488l-8.192-7.082667-10.752-0.341333c-35.413333-1.237333-112.768-15.146667-111.786667-48.554667 1.024-20.864 3.456-41.6 7.296-62.122666 49.92-18.944 172.970667-68.522667 268.373333-130.816 40.277333 41.130667 92.586667 93.226667 152.96 102.698666 4.437333 20.565333 8.192 39.68 9.770667 52.394667 4.096 33.066667 8.746667 70.485333-112 86.613333l-11.264 1.578667-7.552 8.533333c-23.594667 26.624-100.821333 62.890667-176.810667-2.901333z m-84.48-425.472l1.706666-1.28c39.168-32.042667 174.165333-67.669333 292.778667-21.504 30.805333 11.52 58.069333 30.848 79.104 56.149333 8.234667 9.813333 14.890667 20.821333 19.669333 32.682667-12.970667 29.482667-34.56 82.773333-35.584 85.333333l-3.84 9.429334 2.56 9.898666c0.128 0.426667 4.352 16.725333 9.813334 39.253334-34.218667-16.426667-68.778667-51.712-96.213334-79.786667a55.808 55.808 0 0 0-70.613333-7.466667c-71.936 47.573333-164.266667 88.533333-223.104 112.469334 8.917333-37.034667 17.066667-65.109333 17.28-65.706667l3.328-11.306667L282.453333 255.061333c0.725333-9.642667 6.442667-38.485333 46.506667-66.773333h-0.085333z m509.312 692.224H185.813333a1.706667 1.706667 0 0 1-1.706666-1.706667 205.397333 205.397333 0 0 1 204.586666-205.738666l0.597334-0.042667a194.645333 194.645333 0 0 0 115.925333 39.338667 182.357333 182.357333 0 0 0 122.410667-46.250667c113.28 1.152 212.266667 100.053333 212.266666 212.736a1.706667 1.706667 0 0 1-1.706666 1.664z" fill="#242F44" p-id="1287"></path></svg>