<?xml version="1.0" standalone="no"?><!DOCTYPE svg PUBLIC "-//W3C//DTD SVG 1.1//EN" "http://www.w3.org/Graphics/SVG/1.1/DTD/svg11.dtd"><svg t="1615792123724" class="icon" viewBox="0 0 1024 1024" version="1.1" xmlns="http://www.w3.org/2000/svg" p-id="2625" xmlns:xlink="http://www.w3.org/1999/xlink" width="200" height="200"><defs><style type="text/css"></style></defs><path d="M212.608 881.216v-306.56a58.688 58.688 0 0 0-58.688-58.496l-88.704 0.128c-0.128-0.128-0.32-0.512-0.128-0.512l428.8-386.88 428.608 386.752-71.296 0.512a58.688 58.688 0 0 0-58.688 58.56v51.328h65.024v-45.056h64.64a65.088 65.088 0 0 0 43.328-113.728L536.96 80.384a65.28 65.28 0 0 0-86.528 0L21.952 467.2a65.088 65.088 0 0 0 43.264 113.728h82.368v300.16a81.6 81.6 0 0 0 81.536 81.472h595.84v-64.896H229.12a16.576 16.576 0 0 1-16.512-16.512z m314.368-232.32V568.768h80.192V503.936H526.976v-80H461.952v80H381.76v64.896h80.192v80h65.024z m407.552 97.408l-101.952-101.76-45.952 45.888 46.4 46.336-215.616 0.064v64.896l217.28-0.064-48.064 48 45.952 45.824 101.952-101.76a33.28 33.28 0 0 0 0-47.424z" fill="#6A6F8A" p-id="2626"></path></svg>