<?xml version="1.0" standalone="no"?><!DOCTYPE svg PUBLIC "-//W3C//DTD SVG 1.1//EN" "http://www.w3.org/Graphics/SVG/1.1/DTD/svg11.dtd"><svg t="1614822323182" class="icon" viewBox="0 0 1024 1024" version="1.1" xmlns="http://www.w3.org/2000/svg" p-id="2492" xmlns:xlink="http://www.w3.org/1999/xlink" width="200" height="200"><defs><style type="text/css"></style></defs><path d="M301.714286 548.571429H475.428571v173.714285c0 5.046857 4.096 9.142857 9.142858 9.142857h54.857142a9.142857 9.142857 0 0 0 9.142858-9.142857V548.571429h173.714285A9.142857 9.142857 0 0 0 731.428571 539.428571v-54.857142a9.142857 9.142857 0 0 0-9.142857-9.142858H548.571429V301.714286A9.142857 9.142857 0 0 0 539.428571 292.571429h-54.857142a9.142857 9.142857 0 0 0-9.142858 9.142857V475.428571H301.714286A9.142857 9.142857 0 0 0 292.571429 484.571429v54.857142c0 5.046857 4.096 9.142857 9.142857 9.142858z" fill="#0F49ED" opacity=".6" p-id="2493"></path><path d="M932.571429 54.857143H91.428571a36.571429 36.571429 0 0 0-36.571428 36.571428v841.142858a36.571429 36.571429 0 0 0 36.571428 36.571428h841.142858a36.571429 36.571429 0 0 0 36.571428-36.571428V91.428571a36.571429 36.571429 0 0 0-36.571428-36.571428z m-45.714286 832H137.142857V137.142857h749.714286v749.714286z" fill="#0F49ED" opacity=".6" p-id="2494"></path></svg>