<?xml version="1.0" standalone="no"?><!DOCTYPE svg PUBLIC "-//W3C//DTD SVG 1.1//EN" "http://www.w3.org/Graphics/SVG/1.1/DTD/svg11.dtd"><svg t="1615948187298" class="icon" viewBox="0 0 1024 1024" version="1.1" xmlns="http://www.w3.org/2000/svg" p-id="3285" xmlns:xlink="http://www.w3.org/1999/xlink" width="200" height="200"><defs><style type="text/css"></style></defs><path d="M512 512m-512 0a512 512 0 1 0 1024 0 512 512 0 1 0-1024 0Z" fill="#FFE4E4" p-id="3286"></path><path d="M518.678261 1015.095652c124.66087 0 244.869565-44.521739 340.591304-124.660869l-6.678261-42.295653c-2.226087-75.686957-62.330435-135.791304-138.017391-133.565217H329.46087c-75.686957 0-138.017391 60.104348-138.017392 133.565217l-6.678261 44.52174c93.495652 80.13913 211.478261 122.434783 333.913044 122.434782z" fill="#FF7E7E" p-id="3287"></path><path d="M518.678261 803.617391h-11.130435c-44.521739 0-95.721739-37.843478-95.721739-84.591304l11.130435-158.052174c0-46.747826 35.617391-84.591304 82.365217-84.591304h11.130435c46.747826 0 82.365217 37.843478 82.365217 84.591304l11.130435 158.052174c2.226087 46.747826-46.747826 84.591304-91.269565 84.591304z" fill="#F8FCFF" p-id="3288"></path><path d="M603.269565 661.147826l-6.678261-77.913043c0-44.521739-35.617391-80.13913-82.365217-80.139131h-11.130435c-44.521739 0-80.13913 35.617391-82.365217 80.139131l-8.904348 151.373913c0 11.130435 2.226087 22.26087 8.904348 31.165217h35.617391c66.782609 2.226087 124.66087-40.069565 146.921739-104.626087z" fill="#DCE6EA" p-id="3289"></path><path d="M396.243478 213.704348H645.565217c24.486957 0 42.295652 20.034783 42.295653 42.295652v207.026087c0 86.817391-71.234783 158.052174-158.052174 158.052174H512c-86.817391 0-158.052174-71.234783-158.052174-158.052174v-207.026087c0-22.26087 20.034783-42.295652 42.295652-42.295652z" fill="#FFFFFF" p-id="3290"></path><path d="M325.008696 380.66087c33.391304 2.226087 57.878261 31.165217 55.652174 64.556521 2.226087 33.391304-22.26087 62.330435-55.652174 64.556522-33.391304-2.226087-57.878261-31.165217-55.652174-64.556522-2.226087-31.165217 22.26087-60.104348 55.652174-64.556521zM716.8 380.66087c33.391304 2.226087 57.878261 31.165217 55.652174 64.556521 2.226087 33.391304-22.26087 62.330435-55.652174 64.556522-33.391304-2.226087-57.878261-31.165217-55.652174-64.556522-2.226087-31.165217 22.26087-60.104348 55.652174-64.556521z" fill="#FFFFFF" p-id="3291"></path><path d="M712.347826 792.486957L627.756522 712.347826c53.426087 11.130435 69.008696 95.721739 120.208695 115.756522 15.582609-2.226087 33.391304-6.678261 48.973913-11.130435 2.226087 0-4.452174-48.973913-2.226087-46.747826 6.678261 13.356522 13.356522 26.713043 20.034783 42.295652 22.26087-24.486957 37.843478-53.426087 44.521739-84.591304l-24.486956-33.391305 31.165217 22.26087 20.034783-46.747826s-73.46087-44.521739-93.495652-97.947826c-13.356522-33.391304-17.808696-220.382609-17.808696-220.382609-4.452174-26.713043-13.356522-53.426087-26.713044-80.13913-2.226087-2.226087-2.226087-6.678261-4.452174-8.904348-28.93913-95.721739-124.66087-155.826087-222.608695-138.017391-106.852174-8.904348-155.826087 37.843478-191.443478 100.173913-8.904348 13.356522-17.808696 28.93913-24.486957 42.295652-26.713043 60.104348-40.069565 129.113043-28.93913 251.547826 0 0 11.130435 171.408696 80.13913 251.547826 22.26087-8.904348 35.617391-46.747826 60.104348-55.652174 46.747826 0 26.713043 2.226087 35.617391-17.808696 8.904348-26.713043 8.904348-55.652174 2.226087-82.365217-11.130435-6.678261-20.034783-15.582609-31.165217-24.486957-8.904348-8.904348-69.008696-64.556522-75.686957-97.947826l-4.452174-2.226087v-6.67826c-6.678261 2.226087-15.582609 0-20.034782-2.226087-11.130435-8.904348-17.808696-20.034783-17.808696-33.391305-2.226087-11.130435 0-24.486957 6.678261-35.617391 224.834783-31.165217 209.252174-175.86087 209.252174-175.86087 11.130435 115.756522 151.373913 158.052174 213.704348 173.634783 13.356522 24.486957 2.226087 73.46087-28.939131 75.686957h-4.452174c0 4.452174-2.226087 8.904348-2.226087 13.356521-13.356522 48.973913-46.747826 77.913043-86.817391 111.304348-6.678261 6.678261-13.356522 11.130435-22.26087 15.582609 2.226087 22.26087-2.226087 57.878261 6.678261 75.686956 40.069565 22.26087 80.13913 55.652174 115.756522 91.269566z" fill="#817171" p-id="3292"></path></svg>