<?xml version="1.0" standalone="no"?><!DOCTYPE svg PUBLIC "-//W3C//DTD SVG 1.1//EN" "http://www.w3.org/Graphics/SVG/1.1/DTD/svg11.dtd"><svg t="1615948181745" class="icon" viewBox="0 0 1024 1024" version="1.1" xmlns="http://www.w3.org/2000/svg" p-id="3155" xmlns:xlink="http://www.w3.org/1999/xlink" width="200" height="200"><defs><style type="text/css"></style></defs><path d="M512 512m-512 0a512 512 0 1 0 1024 0 512 512 0 1 0-1024 0Z" fill="#DCEAFF" p-id="3156"></path><path d="M519.346087 1014.873043A522.685217 522.685217 0 0 0 859.492174 890.434783l-7.123478-42.963479a136.904348 136.904348 0 0 0-138.685218-133.565217h-385.113043a136.904348 136.904348 0 0 0-138.462609 133.565217l-7.346087 44.521739a521.572174 521.572174 0 0 0 336.584348 121.766957z" fill="#769AFF" p-id="3157"></path><path d="M518.010435 804.507826h-12.02087c-44.521739 0-94.608696-38.288696-94.608695-85.25913l11.575652-158.497392a84.368696 84.368696 0 0 1 82.587826-85.481739h11.798261A84.591304 84.591304 0 0 1 601.043478 560.751304l11.798261 158.497392c0 46.970435-48.973913 85.25913-94.608696 85.25913z" fill="#F8FCFF" p-id="3158"></path><path d="M603.492174 660.925217l-6.010435-77.022608a81.474783 81.474783 0 0 0-81.252174-81.029566h-11.798261A81.697391 81.697391 0 0 0 422.956522 584.125217L411.603478 734.608696a65.001739 65.001739 0 0 0 8.459131 32.055652 152.486957 152.486957 0 0 0 17.586087 0h17.363478a155.826087 155.826087 0 0 0 148.257391-107.074783z" fill="#DCE6EA" p-id="3159"></path><path d="M596.591304 164.285217h-117.982608a96.612174 96.612174 0 0 0-81.029566 44.52174 96.834783 96.834783 0 0 0-95.944347 96.612173v64.111305a96.612174 96.612174 0 0 0 96.612174 96.166956h237.523478a95.721739 95.721739 0 0 0 95.49913-95.49913v-71.012174a135.346087 135.346087 0 0 0-134.678261-134.90087z" fill="#5B637B" opacity=".8" p-id="3160"></path><path d="M392.236522 319.888696H650.017391a44.521739 44.521739 0 0 1 44.521739 44.521739v155.826087a164.730435 164.730435 0 0 1-164.507826 164.285217H512a164.285217 164.285217 0 0 1-164.730435-164.062609v-155.826087a44.521739 44.521739 0 0 1 44.521739-44.521739z" fill="#FFFFFF" p-id="3161"></path></svg>