<?xml version="1.0" standalone="no"?><!DOCTYPE svg PUBLIC "-//W3C//DTD SVG 1.1//EN" "http://www.w3.org/Graphics/SVG/1.1/DTD/svg11.dtd"><svg t="1615361022514" class="icon" viewBox="0 0 1025 1024" version="1.1" xmlns="http://www.w3.org/2000/svg" p-id="7439" xmlns:xlink="http://www.w3.org/1999/xlink" width="200.1953125" height="200"><defs><style type="text/css"></style></defs><path d="M1016.832 595.712L927.04 488.96a28.8 28.8 0 0 0-40.576-3.456L779.84 575.36a28.8 28.8 0 0 0 37.12 43.968l52.416-44.16c-23.232 202.432-195.584 360.192-404.096 360.192A407.296 407.296 0 0 1 58.432 528.512 407.296 407.296 0 0 1 465.28 121.728a405.888 405.888 0 0 1 273.024 105.28 28.8 28.8 0 1 0 38.656-42.624 464.768 464.768 0 1 0 150.016 393.92l45.76 54.4a28.8 28.8 0 1 0 43.968-36.992h0.128z" fill="#0F49ED" p-id="7440"></path><path d="M476.16 547.648a148.864 148.864 0 1 1-0.064-297.728 148.864 148.864 0 0 1 0 297.728z m0-240.192a91.328 91.328 0 1 0-0.064 182.656 91.328 91.328 0 0 0 0-182.656z m167.68 477.888H308.48c-25.664-0.064-49.28-13.824-62.08-36.032a67.776 67.776 0 0 1-0.192-68.48c46.784-80.64 134.912-130.816 229.952-130.816 95.04 0 183.168 50.112 229.888 130.752 12.352 21.184 12.288 47.36-0.192 68.48-12.8 22.272-36.352 35.968-61.952 36.096zM476.16 607.552c-74.624 0-143.68 39.04-180.224 102.016a10.56 10.56 0 0 0 0.32 10.944 14.144 14.144 0 0 0 12.16 7.232h335.488a14.144 14.144 0 0 0 12.16-7.232 10.56 10.56 0 0 0 0.256-10.88c-36.544-62.976-105.6-102.08-180.16-102.08z" fill="#666A7A" p-id="7441"></path></svg>