<?xml version="1.0" standalone="no"?><!DOCTYPE svg PUBLIC "-//W3C//DTD SVG 1.1//EN" "http://www.w3.org/Graphics/SVG/1.1/DTD/svg11.dtd"><svg t="1615383780279" class="icon" viewBox="0 0 1024 1024" version="1.1" xmlns="http://www.w3.org/2000/svg" p-id="6384" xmlns:xlink="http://www.w3.org/1999/xlink" width="200" height="200"><defs><style type="text/css"></style></defs><path d="M324.288 136.512a34.112 34.112 0 0 1 2.56 68.224l-2.56 0.064H204.8v682.688h614.4V204.8h-110.912a34.112 34.112 0 0 1-2.56-68.16l2.56-0.128H819.2c36.352 0 66.368 28.544 68.16 64.896l0.128 3.392v682.688c0 36.352-28.544 66.368-64.896 68.16l-3.392 0.064H204.8a68.288 68.288 0 0 1-68.16-64.832l-0.128-3.392V204.8c0-36.352 28.544-66.368 64.896-68.16l3.392-0.128h119.488z" fill="#666A7A" p-id="6385"></path><path d="M631.488 68.288H392.512c-56.384 0-102.4 45.952-102.4 102.4 0 56.384 46.016 102.4 102.4 102.4h238.976c56.384 0 102.4-46.016 102.4-102.4 0-56.448-46.016-102.4-102.4-102.4zM392.512 136.512h238.976c18.688 0 34.112 15.488 34.112 34.176a34.368 34.368 0 0 1-34.112 34.112H392.512a34.368 34.368 0 0 1-34.112-34.112c0-18.688 15.424-34.176 34.112-34.176z" fill="#666A7A" p-id="6386"></path><path d="M675.584 419.584l48.256 48.256-221.824 221.888a34.112 34.112 0 0 1-48.256 0L317.184 553.216l48.256-48.256 112.448 112.32 197.76-197.696z" fill="#0F49ED" p-id="6387"></path></svg>