<?xml version="1.0" standalone="no"?><!DOCTYPE svg PUBLIC "-//W3C//DTD SVG 1.1//EN" "http://www.w3.org/Graphics/SVG/1.1/DTD/svg11.dtd"><svg t="1616395791661" class="icon" viewBox="0 0 1024 1024" version="1.1" xmlns="http://www.w3.org/2000/svg" p-id="6192" xmlns:xlink="http://www.w3.org/1999/xlink" width="200" height="200"><defs><style type="text/css"></style></defs><path d="M274.976 800H141.024C116.16 799.936 96 779.04 96 753.312V398.72c0-25.728 20.128-46.624 45.024-46.688h133.952c24.896 0.064 45.056 20.96 45.024 46.688v354.656c0 25.696-20.16 46.592-45.024 46.656zM160 736h96V416H160v320z m722.976 64h-133.952C724.16 799.936 704 778.56 704 752.288V527.68c0-26.304 20.128-47.648 45.024-47.712h133.952c24.896 0.064 45.056 21.44 45.024 47.712v224.576c0 26.272-20.128 47.648-45.024 47.712zM768 736h96v-192h-96v192z m-205.024 64h-133.952C404.16 799.936 384 778.496 384 752.096V143.904c0-26.4 20.16-47.84 45.024-47.904h133.952c24.896 0.064 45.056 21.504 45.024 47.904v608.192c0 26.4-20.128 47.84-45.024 47.904zM448 736h96V160h-96v576z" fill="#4A4A4A" p-id="6193"></path><path d="M926.016 928H97.984C79.136 927.776 64 913.536 64 896s15.136-31.776 33.984-32h828.032c18.848 0.224 33.984 14.464 33.984 32s-15.136 31.776-33.984 32z" fill="#0F49ED" p-id="6194"></path></svg>