<?xml version="1.0" encoding="UTF-8"?>
<svg width="12px" height="12px" viewBox="0 0 12 12" version="1.1" xmlns="http://www.w3.org/2000/svg" xmlns:xlink="http://www.w3.org/1999/xlink">
    <title>计算器</title>
    <g id="页面-1" stroke="none" stroke-width="1" fill="none" fill-rule="evenodd">
        <g id="计算器" fill="#666666" fill-rule="nonzero">
            <path d="M2.088,4.125 L3.12,4.125 L3.12,5.157 C3.12,5.184 3.147,5.205 3.18,5.205 L3.9,5.205 C3.933,5.205 3.96,5.184 3.96,5.1555 L3.96,4.125 L4.992,4.125 C5.019,4.125 5.04,4.098 5.04,4.065 L5.04,3.345 C5.04,3.312 5.019,3.285 4.9905,3.285 L3.96,3.285 L3.96,2.253 C3.96,2.226 3.933,2.205 3.9,2.205 L3.18,2.205 C3.147,2.205 3.12,2.226 3.12,2.253 L3.12,3.285 L2.088,3.285 C2.061,3.285 2.04,3.312 2.04,3.345 L2.04,4.065 C2.04,4.098 2.061,4.125 2.088,4.125 Z M7.008,4.125 L9.912,4.125 C9.939,4.125 9.96,4.098 9.96,4.065 L9.96,3.345 C9.96,3.312 9.939,3.285 9.9105,3.285 L7.008,3.285 C6.981,3.285 6.96,3.312 6.96,3.345 L6.96,4.065 C6.96,4.098 6.981,4.125 7.008,4.125 Z M7.008,8.1 L9.912,8.1 C9.939,8.1 9.96,8.073 9.96,8.04 L9.96,7.32 C9.96,7.287 9.939,7.26 9.9105,7.26 L7.008,7.26 C6.981,7.26 6.96,7.287 6.96,7.32 L6.96,8.04 C6.96,8.073 6.981,8.1 7.008,8.1 Z M7.008,9.66 L9.912,9.66 C9.939,9.66 9.96,9.633 9.96,9.6 L9.96,8.88 C9.96,8.847 9.939,8.82 9.9105,8.82 L7.008,8.82 C6.981,8.82 6.96,8.847 6.96,8.88 L6.96,9.6 C6.96,9.633 6.981,9.66 7.008,9.66 Z M4.0725,8.445 L4.9905,7.3215 C5.055,7.2435 5.001,7.125 4.902,7.125 L4.14,7.125 C4.1055,7.125 4.0725,7.14 4.0515,7.1685 L3.5415,7.7925 L3.0315,7.1685 C3.009,7.1415 2.976,7.125 2.943,7.125 L2.1795,7.125 C2.0805,7.125 2.0265,7.2435 2.091,7.3215 L3.009,8.445 L2.0685,9.597 C2.0025,9.675 2.0565,9.7935 2.1555,9.7935 L2.9175,9.7935 C2.952,9.7935 2.985,9.7785 3.006,9.75 L3.5385,9.0975 L4.071,9.75 C4.0935,9.777 4.1265,9.7935 4.1595,9.7935 L4.9215,9.7935 C5.0205,9.7935 5.0745,9.675 5.01,9.597 L4.0725,8.445 L4.0725,8.445 Z" id="形状"></path>
            <path d="M11.52,0 L0.48,0 C0.2145,0 0,0.2145 0,0.48 L0,11.52 C0,11.7855 0.2145,12 0.48,12 L11.52,12 C11.7855,12 12,11.7855 12,11.52 L12,0.48 C12,0.2145 11.7855,0 11.52,0 Z M10.98,10.98 L1.02,10.98 L1.02,1.02 L10.98,1.02 L10.98,10.98 Z" id="形状"></path>
        </g>
    </g>
</svg>