<?xml version="1.0" standalone="no"?><!DOCTYPE svg PUBLIC "-//W3C//DTD SVG 1.1//EN" "http://www.w3.org/Graphics/SVG/1.1/DTD/svg11.dtd"><svg t="1590561948261" class="icon" viewBox="0 0 1024 1024" version="1.1" xmlns="http://www.w3.org/2000/svg" p-id="5741" xmlns:xlink="http://www.w3.org/1999/xlink" width="64" height="64"><defs><style type="text/css"></style></defs><path d="M82.1 942.7s-25.4-290.9 434.1-321c0 0 425.6 6.7 425.6 321H82.1z" fill="#54D3CC" p-id="5742"></path><path d="M956.8 957.7H68.3L67.1 944c-0.3-4-7.6-98.2 68.9-187.4 34-39.7 79.6-72.2 135.5-96.6 66.5-29.1 148.5-47 243.7-53.2h1.2c4.5 0.1 110.3 2.2 218 43.6 64 24.6 115.2 58.2 152.1 99.6 46.6 52.4 70.3 117.2 70.3 192.7v15zM97 927.7h829.5c-2.9-61.5-23.8-114.5-62.4-157.8-33.7-37.9-81-68.7-140.5-91.6-98.8-38-198.7-41.4-207.1-41.6-91.1 6-169.4 23-232.5 50.5-51.6 22.5-93.6 52.2-124.7 88.3-35.7 41.4-50.8 84.2-57.1 112.8-3.6 16.3-4.8 30-5.2 39.4z" fill="#2A4964" p-id="5743"></path><path d="M511.8 694.3c-88 0-161.9-66-171.9-153.4l-18.3-160.5c-2.2-19.6 13.1-36.8 32.8-36.8h314.8c19.7 0 35 17.2 32.8 36.8l-18.3 160.5c-10 87.4-83.9 153.4-171.9 153.4z" fill="#FFFDE1" p-id="5744"></path><path d="M511.8 709.3c-95.6 0-175.9-71.7-186.8-166.7l-18.3-160.5c-1.5-13.6 2.8-27.2 11.9-37.4 9.1-10.2 22.2-16 35.8-16h314.8c13.7 0 26.7 5.8 35.8 16s13.4 23.8 11.9 37.4l-18.3 160.5c-10.8 95-91.1 166.7-186.8 166.7zM354.4 358.7c-5.2 0-10 2.1-13.4 6-3.5 3.9-5 8.9-4.5 14l18.3 160.5c9.1 79.9 76.6 140.1 157 140.1s147.9-60.2 157-140.1l18.3-160.5c0.6-5.2-1-10.2-4.5-14s-8.2-6-13.4-6H354.4z" fill="#2A4964" p-id="5745"></path><path d="M726.8 458.2h-430V266c0-102.9 84.2-187.1 187.1-187.1h55.7c102.9 0 187.1 84.2 187.1 187.1v192.2z" fill="#DDF0F0" p-id="5746"></path><path d="M741.8 473.2h-460V266c0-53.8 21.1-104.5 59.4-142.8s89-59.4 142.8-59.4h55.7c53.8 0 104.5 21.1 142.8 59.4 38.3 38.3 59.4 89 59.4 142.8v207.2z m-430-30h400V266c0-45.8-18-88.9-50.6-121.6-32.6-32.6-75.8-50.6-121.6-50.6h-55.7c-45.8 0-88.9 18-121.6 50.6-32.6 32.6-50.6 75.8-50.6 121.6v177.2z" fill="#2A4964" p-id="5747"></path><path d="M516.2 362.1h-8.8c-6.6 0-12-5.4-12-12v-153c0-6.6 5.4-12 12-12h8.8c6.6 0 12 5.4 12 12v153c0 6.6-5.4 12-12 12z" fill="#F25168" p-id="5748"></path><path d="M423.3 278v-8.8c0-6.6 5.4-12 12-12h153c6.6 0 12 5.4 12 12v8.8c0 6.6-5.4 12-12 12h-153c-6.6 0-12-5.4-12-12z" fill="#F25168" p-id="5749"></path><path d="M506.9 789.6c-8.3 0-15-6.8-15-15s6.7-15 15-15c8.2 0 15 6.8 15 15 0 8.3-6.8 15-15 15zM506.9 862.6c-8.3 0-15-6.8-15-15s6.7-15 15-15c8.2 0 15 6.8 15 15 0 8.3-6.8 15-15 15z" fill="#2A4964" p-id="5750"></path><path d="M639.9 725.6c6.1 1.5 12.1 3.4 18 5.3 6.8 2.2 13.5 4.5 20.2 7 3.9 1.5 7.8 3 11.7 4.6 1.6 0.6 8.9 3.8 2.7 1.1l6.9 3c19.9 8.8 39.2 19 57.5 30.8 5 3.3 10 6.6 14.9 10.2 2.2 1.6 4.4 3.3 6.7 5 1.9 1.4-2.8-2.2-1-0.8 0.6 0.5 1.2 0.9 1.8 1.4 1.3 1 2.6 2.1 3.9 3.2 9.5 7.8 18.5 16.1 26.8 25.2l7.2 8.1c1 1.2 1.9 2.4 2.9 3.5-0.1-0.1 1.4 1.8 1.4 1.8-0.3 0.1-2.4-3.2 0 0 4.2 5.5 8 11.3 11.6 17.2 3.6 6 6.9 12.2 9.8 18.6 0.3 0.7 0.6 1.4 1 2.2 1.7 3.8-1.5-3.8 0 0.1 0.6 1.7 1.3 3.3 1.9 5 1.3 3.6 2.5 7.2 3.6 10.8 2.7 9 12.7 15.6 22.1 12.6 9.1-2.9 15.5-12.5 12.6-22.1-16-53.2-54-95-98.9-126.2-34.2-23.8-72.7-41.7-112.2-54.9-7.7-2.6-15.6-5.1-23.5-7.1-9.1-2.2-19.9 2.9-22.1 12.6-2.2 8.9 2.7 19.4 12.5 21.8z" fill="#FFFFFF" p-id="5751"></path></svg>