<?xml version="1.0" standalone="no"?><!DOCTYPE svg PUBLIC "-//W3C//DTD SVG 1.1//EN" "http://www.w3.org/Graphics/SVG/1.1/DTD/svg11.dtd"><svg t="1590561621760" class="icon" viewBox="0 0 1024 1024" version="1.1" xmlns="http://www.w3.org/2000/svg" p-id="2870" xmlns:xlink="http://www.w3.org/1999/xlink" width="64" height="64"><defs><style type="text/css"></style></defs><path d="M841.523 998.048c-82.926-0.255-179.801 0.18-318.148 0.195v-51.015c45.15-24.13 94.278-281.295 131.337-280.298 142.668 29.19 243.892 110.619 243.892 265.41-1.9 40.229-21.217 65.814-57.081 65.708zM718.197 480.95c-31.421 104.852-113.716 179.664-210.296 179.664-96.654 0-178.995-74.935-210.36-179.913-14.455-6.74-32.123-21.777-38.718-60.14-8.617-50.204 22.35-62.22 22.35-62.22 2.227-0.116 4.528 1.65 6.84 4.752 4.756-13.876 13.34-26.089 23.78-36.365 39.515-38.84 112.216-59.583 199.979-59.965 79.526-0.35 135.134 4.756 191.705 58.825 9.948 9.508 19.312 24.287 24.386 39.51 2.827-4.395 5.647-6.962 8.352-6.819 0 0 31.337 11.983 22.61 62.05-6.904 39.577-25.765 54.236-40.628 60.62zM273.373 300.242V89.12s102.82-63.363 226.06-63.363c118.881 0 238.43 63.363 238.43 63.363v211.356s-68.64-77.57-232.258-77.57c-164.593 0-232.232 77.336-232.232 77.336z m296.742-159.677v-27.579h-50.973V62.068h-27.08v50.918h-50.74v27.58h50.74v50.876h27.08v-50.877h50.973z m-69.483 806.663v51.015c-138.352-0.015-235.228-0.45-318.16-0.195-35.849 0.106-55.182-25.48-57.075-65.708 0-154.794 101.23-236.22 243.888-265.416 37.073-0.991 86.174 256.173 131.347 280.304z m0 0" fill="#F0970A" p-id="2871"></path></svg>
