<?xml version="1.0" standalone="no"?><!DOCTYPE svg PUBLIC "-//W3C//DTD SVG 1.1//EN" "http://www.w3.org/Graphics/SVG/1.1/DTD/svg11.dtd"><svg t="1590561956773" class="icon" viewBox="0 0 1024 1024" version="1.1" xmlns="http://www.w3.org/2000/svg" p-id="5886" xmlns:xlink="http://www.w3.org/1999/xlink" width="64" height="64"><defs><style type="text/css"></style></defs><path d="M694.8 375.2s208.4 379.7-28.7 300.7-321 0-321 0-195 90.9-33-273.1 382.7-27.6 382.7-27.6z" fill="#2A4964" p-id="5887"></path><path d="M81.3 940.9S55.9 650 515.4 619.9c0 0 425.6 6.7 425.6 321H81.3z" fill="#54D3CC" p-id="5888"></path><path d="M956 955.9H67.5l-1.2-13.7c-0.3-4-7.6-98.2 68.9-187.4 34-39.7 79.6-72.2 135.5-96.6 66.5-29.1 148.5-47 243.7-53.2h1.2c4.5 0.1 110.3 2.2 218 43.6 64 24.6 115.2 58.2 152.1 99.6 46.6 52.4 70.3 117.2 70.3 192.7v15z m-859.8-30h829.5c-2.9-61.5-23.8-114.5-62.4-157.8-33.7-37.9-81-68.7-140.5-91.6-98.8-38-198.7-41.4-207.1-41.6-91.4 6-169.8 23.1-233 50.7C231 708.2 189.1 738 158 774.2c-52.1 60.9-60.7 124.5-61.8 151.7z" fill="#2A4964" p-id="5889"></path><path d="M511 692.5c-88 0-161.9-66-171.9-153.4l-18.3-160.5c-2.2-19.6 13.1-36.8 32.8-36.8h314.8c19.7 0 35 17.2 32.8 36.8l-18.3 160.5c-10 87.4-83.9 153.4-171.9 153.4z" fill="#FFFDE1" p-id="5890"></path><path d="M511 707.5c-95.6 0-175.9-71.7-186.8-166.7l-18.3-160.5c-1.5-13.6 2.8-27.2 11.9-37.4s22.2-16 35.8-16h314.8c13.7 0 26.7 5.8 35.8 16 9.1 10.2 13.4 23.8 11.9 37.4l-18.3 160.5C687 635.9 606.7 707.5 511 707.5zM353.6 356.9c-5.2 0-10 2.1-13.4 6-3.5 3.9-5 8.9-4.5 14L354 537.4c9.1 79.9 76.6 140.1 157 140.1s147.9-60.2 157-140.1l18.3-160.5c0.6-5.2-1-10.2-4.5-14-3.5-3.9-8.2-6-13.4-6H353.6zM506.1 787.9c-8.3 0-15-6.8-15-15s6.7-15 15-15c8.2 0 15 6.8 15 15s-6.8 15-15 15zM506.1 860.9c-8.3 0-15-6.8-15-15s6.7-15 15-15c8.2 0 15 6.8 15 15s-6.8 15-15 15z" fill="#2A4964" p-id="5891"></path><path d="M639.1 723.8c6.1 1.5 12.1 3.4 18 5.3 6.8 2.2 13.5 4.5 20.2 7 3.9 1.5 7.8 3 11.7 4.6 1.6 0.6 8.9 3.8 2.7 1.1l6.9 3c19.9 8.8 39.2 19 57.5 30.8 5 3.3 10 6.6 14.9 10.2 2.2 1.6 4.4 3.3 6.7 5 1.9 1.4-2.8-2.2-1-0.8 0.6 0.5 1.2 0.9 1.8 1.4 1.3 1 2.6 2.1 3.9 3.2 9.5 7.8 18.5 16.1 26.8 25.2l7.2 8.1c1 1.2 1.9 2.4 2.9 3.5-0.1-0.1 1.4 1.8 1.4 1.8-0.3 0.1-2.4-3.2 0 0 4.2 5.5 8 11.3 11.6 17.2 3.6 6 6.9 12.2 9.8 18.6 0.3 0.7 0.6 1.4 1 2.2 1.7 3.8-1.5-3.8 0 0.1 0.6 1.7 1.3 3.3 1.9 5 1.3 3.6 2.5 7.2 3.6 10.8 2.7 9 12.7 15.6 22.1 12.6 9.1-2.9 15.5-12.5 12.6-22.1-16-53.2-54-95-98.9-126.2-34.2-23.8-72.7-41.7-112.2-54.9-7.7-2.6-15.6-5.1-23.5-7.1-9.1-2.2-19.9 2.9-22.1 12.6-2.2 8.9 2.7 19.4 12.5 21.8z" fill="#FFFFFF" p-id="5892"></path><path d="M474.7 347.9s106.7 124.3 218.1 84.6V287.9s-223.6 18-218.1 60z" fill="#2A4964" p-id="5893"></path><path d="M247.5 183.1s215.4-221.3 507.1-20l-52 228.6s-228-86.6-386.5 0l-68.6-208.6z" fill="#DDF0F0" p-id="5894"></path><path d="M307.4 413.6l-77-234.4 6.3-6.5c2.3-2.4 57.5-58.3 150.1-89.3 54.6-18.2 110.8-23.9 167.2-17 70.1 8.7 140.4 37 209 84.3l8.4 5.8-58.1 255.3-16.1-6.1c-0.6-0.2-56.8-21.3-131.3-31.7-43.4-6.1-84.3-7.4-121.7-3.9-46.1 4.3-86.8 16-121.1 34.7l-15.7 8.8z m179.3-75.3c26.9 0 55 2.1 84.1 6.2 54.1 7.6 98.3 20.4 120.8 27.7l46-202.3C676 129 613.4 104.2 551.2 96.4c-51.8-6.5-103.5-1.4-153.6 15.1-68.8 22.7-116.3 61.2-132.9 76.1l60.1 183c34.3-16 73.6-26.2 117.1-30.2 14.5-1.5 29.4-2.1 44.8-2.1z" fill="#2A4964" p-id="5895"></path><path d="M505.4 308.9h-8.8c-6.6 0-12-5.4-12-12v-153c0-6.6 5.4-12 12-12h8.8c6.6 0 12 5.4 12 12v153c0 6.6-5.4 12-12 12z" fill="#F25168" p-id="5896"></path><path d="M412.5 224.7V216c0-6.6 5.4-12 12-12h153c6.6 0 12 5.4 12 12v8.8c0 6.6-5.4 12-12 12h-153c-6.6-0.1-12-5.5-12-12.1z" fill="#F25168" p-id="5897"></path></svg>