<?xml version="1.0" standalone="no"?><!DOCTYPE svg PUBLIC "-//W3C//DTD SVG 1.1//EN" "http://www.w3.org/Graphics/SVG/1.1/DTD/svg11.dtd"><svg t="1635745749495" class="icon" viewBox="0 0 1024 1024" version="1.1" xmlns="http://www.w3.org/2000/svg" p-id="3155" xmlns:xlink="http://www.w3.org/1999/xlink" width="200" height="200"><defs><style type="text/css"></style></defs><path d="M954.395224 834.790684L553.317523 140.104945a47.725978 47.725978 0 0 0-82.660628 0L68.783061 836.170101a47.724954 47.724954 0 0 0 41.330314 71.586408h803.772227c26.357298 0 47.723931-21.366633 47.723931-47.724954 0-9.269108-2.641153-17.920138-7.214309-25.240871z m-401.463488-72.672136c0 22.606881-18.326391 40.932248-40.932248 40.932248-22.606881 0-40.932248-18.325367-40.932248-40.932248v-1.312902c0-22.606881 18.325367-40.932248 40.932248-40.932248 22.605857 0 40.932248 18.325367 40.932248 40.932248v1.312902z m0-149.564388c0 22.606881-18.325367 40.932248-40.932248 40.932248-22.605857 0-40.932248-18.325367-40.932248-40.932248V394.911258c0-22.606881 18.326391-40.932248 40.932248-40.932248 22.606881 0 40.932248 18.325367 40.932248 40.932248V612.55416z" fill="#d81e06" p-id="3156"></path></svg>